<svg width="135" height="40" viewBox="0 0 135 40" fill="none" xmlns="http://www.w3.org/2000/svg">
<g clip-path="url(#clip0_3654_4216)">
<path fill-rule="evenodd" clip-rule="evenodd" d="M129.998 40H5.00184C2.24512 40 0 37.7456 0 35V5C0 2.24439 2.24512 0 5.00184 0H129.998C132.752 0 135 2.24439 135 5V35C135 37.7456 132.752 40 129.998 40Z" fill="black"/>
<path fill-rule="evenodd" clip-rule="evenodd" d="M129.998 0.800499C132.31 0.800499 134.203 2.68828 134.203 5V35C134.203 37.3117 132.323 39.1995 129.998 39.1995H5.00184C2.68967 39.1995 0.797215 37.3117 0.797215 35V5C0.797215 2.68828 2.67725 0.800499 5.00184 0.800499H129.998ZM129.998 0H5.00184C2.24512 0 0 2.25436 0 5V35C0 37.7556 2.24512 40 5.00184 40H129.998C132.752 40 135 37.7556 135 35V5C135 2.25436 132.752 0 129.998 0Z" fill="#A6A6A6"/>
<path d="M71.1182 13.232C70.2167 13.232 69.4567 12.9153 68.8557 12.2918C68.2596 11.6858 67.9268 10.8504 67.9417 9.99755C67.9417 9.08732 68.2497 8.31675 68.8557 7.70577C69.4542 7.08233 70.2142 6.76562 71.1157 6.76562C72.0073 6.76562 72.7672 7.08233 73.3782 7.70577C73.9841 8.3367 74.2921 9.10727 74.2921 9.99755C74.2822 10.9103 73.9742 11.6808 73.3782 12.2893C72.7796 12.9177 72.0197 13.232 71.1182 13.232ZM44.2937 13.232C43.412 13.232 42.6471 12.9202 42.0212 12.3043C41.4004 11.6908 41.085 10.9153 41.085 10C41.085 9.08483 41.4004 8.30927 42.0212 7.6958C42.6347 7.07984 43.3996 6.76812 44.2937 6.76812C44.7308 6.76812 45.1554 6.8554 45.5627 7.03246C45.9626 7.20453 46.2879 7.43894 46.5288 7.72572L46.5884 7.79804L45.9154 8.46139L45.8459 8.37909C45.4659 7.92523 44.9568 7.70328 44.2837 7.70328C43.6827 7.70328 43.1587 7.91774 42.7266 8.34169C42.292 8.76812 42.0709 9.32672 42.0709 10.0025C42.0709 10.6783 42.292 11.2369 42.7266 11.6634C43.1587 12.0873 43.6827 12.3018 44.2837 12.3018C44.9245 12.3018 45.4634 12.0873 45.8831 11.6634C46.1315 11.414 46.2855 11.0649 46.3401 10.6235H44.1819V9.69081H47.2664L47.2789 9.7756C47.3012 9.93271 47.3236 10.0948 47.3236 10.2444C47.3236 11.1048 47.0653 11.8005 46.5537 12.3143C45.9725 12.9227 45.2126 13.232 44.2937 13.232ZM79.9595 13.0998H79.0083L76.0951 8.41899L76.12 9.26188V13.0973H75.1688V6.90029H76.2541L76.2839 6.94767L79.0232 11.3566L78.9984 10.5162V6.90029H79.9595V13.0998ZM63.9706 13.0998H63.007V7.83296H61.3356V6.90029H65.6395V7.83296H63.9681V13.0998H63.9706ZM60.5508 13.0998H59.5897V6.90029H60.5508V13.0998ZM55.1491 13.0998H54.188V7.83296H52.5166V6.90029H56.8205V7.83296H55.1491V13.0998ZM51.9081 13.0898H48.2226V6.90029H51.9081V7.83296H49.1862V9.5337H51.6424V10.4564H49.1862V12.1571H51.9081V13.0898ZM69.561 11.6509C69.9906 12.0823 70.5122 12.2993 71.1182 12.2993C71.7415 12.2993 72.2507 12.0873 72.6753 11.6509C73.0975 11.227 73.3111 10.6709 73.3111 10C73.3111 9.32922 73.0975 8.77061 72.6778 8.34917C72.2482 7.91774 71.7241 7.70079 71.1206 7.70079C70.4973 7.70079 69.9882 7.91276 69.566 8.34917C69.1438 8.77311 68.9302 9.32922 68.9302 10C68.9302 10.6709 69.1413 11.2295 69.561 11.6509Z" fill="white"/>
<path fill-rule="evenodd" clip-rule="evenodd" d="M67.8528 21.7554C65.5059 21.7554 63.6035 23.5434 63.6035 26.0098C63.6035 28.4537 65.5183 30.2641 67.8528 30.2641C70.1998 30.2641 72.1021 28.4636 72.1021 26.0098C72.1021 23.5434 70.1998 21.7554 67.8528 21.7554ZM67.8528 28.5784C66.5688 28.5784 65.4636 27.511 65.4636 25.9998C65.4636 24.4661 66.5713 23.4213 67.8528 23.4213C69.1368 23.4213 70.242 24.4661 70.242 25.9998C70.2445 27.521 69.1368 28.5784 67.8528 28.5784ZM58.5818 21.7554C56.2348 21.7554 54.3324 23.5434 54.3324 26.0098C54.3324 28.4537 56.2472 30.2641 58.5818 30.2641C60.9287 30.2641 62.8311 28.4636 62.8311 26.0098C62.8311 23.5434 60.9262 21.7554 58.5818 21.7554ZM58.5818 28.5784C57.2978 28.5784 56.1926 27.511 56.1926 25.9998C56.1926 24.4661 57.3003 23.4213 58.5818 23.4213C59.8658 23.4213 60.9709 24.4661 60.9709 25.9998C60.9709 27.521 59.8658 28.5784 58.5818 28.5784ZM47.5499 23.0547V24.8552H51.8539C51.7222 25.8651 51.3894 26.6108 50.8803 27.122C50.2495 27.7554 49.2759 28.4437 47.5598 28.4437C44.9149 28.4437 42.8461 26.2991 42.8461 23.6432C42.8461 20.9873 44.9149 18.8427 47.5598 18.8427C48.9879 18.8427 50.0285 19.4088 50.8008 20.132L52.0724 18.8552C50.9995 17.8227 49.5715 17.0322 47.5698 17.0322C43.9413 17.0322 40.8965 19.9998 40.8965 23.6332C40.8965 27.2766 43.9388 30.2342 47.5698 30.2342C49.5293 30.2342 50.9995 29.5908 52.1618 28.3789C53.3465 27.1893 53.7215 25.511 53.7215 24.1569C53.7215 23.7355 53.6892 23.3564 53.6221 23.0347H47.5474C47.5499 23.0322 47.5499 23.0547 47.5499 23.0547ZM92.6733 24.4562C92.3181 23.5011 91.2453 21.7454 89.0448 21.7454C86.8643 21.7454 85.0513 23.4686 85.0513 25.9998C85.0513 28.3888 86.8444 30.2542 89.2559 30.2542C91.1931 30.2542 92.3206 29.0646 92.7851 28.3664L91.3471 27.3988C90.8702 28.1095 90.2071 28.5759 89.2659 28.5759C88.3147 28.5759 87.6491 28.142 87.207 27.2866L92.872 24.93C92.872 24.9325 92.6733 24.4562 92.6733 24.4562ZM86.8966 25.8776C86.8519 24.2342 88.1682 23.3988 89.1094 23.3988C89.852 23.3988 90.4704 23.7654 90.6815 24.2991L86.8966 25.8776ZM82.2946 29.9998H84.1548V17.5011H82.2946V29.9998ZM79.2398 22.7006H79.1728C78.7531 22.1993 77.9558 21.7454 76.9376 21.7454C74.8241 21.7454 72.877 23.6133 72.877 26.0123C72.877 28.4013 74.8142 30.2467 76.9376 30.2467C77.9434 30.2467 78.7531 29.7903 79.1728 29.2791H79.2398V29.8901C79.2398 31.5135 78.3756 32.3888 76.9823 32.3888C75.8424 32.3888 75.1345 31.5659 74.8465 30.8776L73.2297 31.5559C73.6941 32.6781 74.9334 34.0671 76.9798 34.0671C79.1604 34.0671 81.0081 32.7779 81.0081 29.6332V21.9998H79.2498V22.7006C79.2523 22.7006 79.2398 22.7006 79.2398 22.7006ZM77.104 28.5784C75.82 28.5784 74.7471 27.5011 74.7471 26.0123C74.7471 24.511 75.82 23.4237 77.104 23.4237C78.3756 23.4237 79.3615 24.5235 79.3615 26.0123C79.3739 27.5011 78.378 28.5784 77.104 28.5784ZM101.383 17.5011H96.935V29.9998H98.7952V25.2666H101.386C103.444 25.2666 105.468 23.7679 105.468 21.3888C105.468 19.0098 103.452 17.5011 101.383 17.5011ZM101.438 23.521H98.7927V19.2317H101.438C102.831 19.2317 103.618 20.3863 103.618 21.3764C103.618 22.3564 102.821 23.521 101.438 23.521ZM112.924 21.733C111.573 21.733 110.18 22.334 109.604 23.6432L111.253 24.3315C111.608 23.6432 112.258 23.4088 112.946 23.4088C113.91 23.4088 114.884 23.9873 114.906 25.0198V25.1519C114.573 24.9624 113.843 24.6731 112.969 24.6731C111.188 24.6731 109.383 25.6507 109.383 27.4836C109.383 29.1619 110.843 30.2392 112.47 30.2392C113.719 30.2392 114.407 29.6731 114.836 29.0173H114.903V29.9848H116.697V25.1968C116.697 22.9674 115.047 21.733 112.924 21.733ZM112.691 28.5784C112.082 28.5784 111.23 28.2791 111.23 27.511C111.23 26.5434 112.293 26.1769 113.2 26.1769C114.019 26.1769 114.407 26.3539 114.894 26.5983C114.759 27.7205 113.816 28.5684 112.691 28.5784ZM123.238 21.9998L121.102 27.4213H121.035L118.822 21.9998H116.821L120.141 29.5784L118.249 33.7903H120.186L125.295 21.9998H123.238ZM106.494 29.9998H108.354V17.5011H106.494V29.9998Z" fill="white"/>
<path fill-rule="evenodd" clip-rule="evenodd" d="M10.391 7.53364C10.1029 7.84536 9.93652 8.32167 9.93652 8.94511V31.0573C9.93652 31.6808 10.1029 32.1571 10.4009 32.4563L10.4779 32.5237L22.8161 20.1346V19.8578L10.468 7.46631L10.391 7.53364Z" fill="url(#paint0_linear_3654_4216)"/>
<path fill-rule="evenodd" clip-rule="evenodd" d="M26.9214 24.2768L22.8062 20.1446V19.8553L26.9214 15.7231L27.0108 15.778L31.8786 18.5561C33.2718 19.3441 33.2718 20.6458 31.8786 21.4438L27.0108 24.2219L26.9214 24.2768Z" fill="url(#paint1_linear_3654_4216)"/>
<path fill-rule="evenodd" clip-rule="evenodd" d="M27.0109 24.2219L22.8063 20L10.3911 32.4663C10.8456 32.9551 11.608 33.01 12.4599 32.5337L27.0109 24.2219Z" fill="url(#paint2_linear_3654_4216)"/>
<path fill-rule="evenodd" clip-rule="evenodd" d="M27.0109 15.7779L12.4599 7.47869C11.608 6.98992 10.8431 7.05725 10.3911 7.54603L22.8063 19.9999L27.0109 15.7779Z" fill="url(#paint3_linear_3654_4216)"/>
<path opacity="0.2" fill-rule="evenodd" clip-rule="evenodd" d="M26.9214 24.1323L12.4697 32.3767C11.6625 32.843 10.9423 32.8106 10.4779 32.3867L10.4009 32.464L10.4779 32.5313C10.9423 32.9527 11.6625 32.9877 12.4697 32.5213L27.0208 24.2221L26.9214 24.1323Z" fill="black"/>
<path opacity="0.12" fill-rule="evenodd" clip-rule="evenodd" d="M31.8787 21.2993L26.9092 24.1322L26.9986 24.2219L31.8663 21.4439C32.5642 21.0449 32.9069 20.5212 32.9069 20C32.8647 20.4788 32.5095 20.9327 31.8787 21.2993Z" fill="black"/>
<path opacity="0.25" fill-rule="evenodd" clip-rule="evenodd" d="M12.4598 7.62329L31.8786 18.7006C32.5094 19.0572 32.8645 19.5235 32.9192 19.9999C32.9192 19.4787 32.5764 18.955 31.8786 18.556L12.4598 7.47866C11.0665 6.67816 9.93652 7.34649 9.93652 8.94499V9.08963C9.93652 7.48863 11.0665 6.83277 12.4598 7.62329Z" fill="white"/>
</g>
<defs>
<linearGradient id="paint0_linear_3654_4216" x1="21.7094" y1="8.70654" x2="1.93502" y2="13.9538" gradientUnits="userSpaceOnUse">
<stop stop-color="#00A0FF"/>
<stop offset="0.00657" stop-color="#00A1FF"/>
<stop offset="0.2601" stop-color="#00BEFF"/>
<stop offset="0.5122" stop-color="#00D2FF"/>
<stop offset="0.7604" stop-color="#00DFFF"/>
<stop offset="1" stop-color="#00E3FF"/>
</linearGradient>
<linearGradient id="paint1_linear_3654_4216" x1="33.6955" y1="20" x2="9.59777" y2="20" gradientUnits="userSpaceOnUse">
<stop stop-color="#FFE000"/>
<stop offset="0.4087" stop-color="#FFBD00"/>
<stop offset="0.7754" stop-color="#FFA500"/>
<stop offset="1" stop-color="#FF9C00"/>
</linearGradient>
<linearGradient id="paint2_linear_3654_4216" x1="24.7246" y1="22.2973" x2="8.76185" y2="49.0538" gradientUnits="userSpaceOnUse">
<stop stop-color="#FF3A44"/>
<stop offset="1" stop-color="#C31162"/>
</linearGradient>
<linearGradient id="paint3_linear_3654_4216" x1="7.26483" y1="0.178683" x2="14.3865" y2="12.1286" gradientUnits="userSpaceOnUse">
<stop stop-color="#32A071"/>
<stop offset="0.0685" stop-color="#2DA771"/>
<stop offset="0.4762" stop-color="#15CF74"/>
<stop offset="0.8009" stop-color="#06E775"/>
<stop offset="1" stop-color="#00F076"/>
</linearGradient>
<clipPath id="clip0_3654_4216">
<rect width="135" height="40" fill="white"/>
</clipPath>
</defs>
</svg>
