<svg width="562" height="521" viewBox="0 0 562 521" fill="none" xmlns="http://www.w3.org/2000/svg">
<g filter="url(#filter0_d_3641_1135)">
<mask id="path-1-inside-1_3641_1135" fill="white">
<path d="M109 139.5C109 128.454 117.954 119.5 129 119.5H409C420.046 119.5 429 128.454 429 139.5V380.5C429 391.546 420.046 400.5 409 400.5H129C117.954 400.5 109 391.546 109 380.5V139.5Z"/>
</mask>
<path d="M109 139.5C109 128.454 117.954 119.5 129 119.5H409C420.046 119.5 429 128.454 429 139.5V380.5C429 391.546 420.046 400.5 409 400.5H129C117.954 400.5 109 391.546 109 380.5V139.5Z" fill="#1E1E1E" shape-rendering="crispEdges"/>
<path d="M129 119.5V120.5H409V119.5V118.5H129V119.5ZM429 139.5H428V380.5H429H430V139.5H429ZM409 400.5V399.5H129V400.5V401.5H409V400.5ZM109 380.5H110V139.5H109H108V380.5H109ZM129 400.5V399.5C118.507 399.5 110 390.993 110 380.5H109H108C108 392.098 117.402 401.5 129 401.5V400.5ZM429 380.5H428C428 390.993 419.493 399.5 409 399.5V400.5V401.5C420.598 401.5 430 392.098 430 380.5H429ZM409 119.5V120.5C419.493 120.5 428 129.007 428 139.5H429H430C430 127.902 420.598 118.5 409 118.5V119.5ZM129 119.5V118.5C117.402 118.5 108 127.902 108 139.5H109H110C110 129.007 118.507 120.5 129 120.5V119.5Z" fill="white" fill-opacity="0.08" mask="url(#path-1-inside-1_3641_1135)"/>
<rect x="142" y="152.5" width="42" height="32" rx="6" fill="#F5A04A"/>
<rect x="142" y="168.5" width="42" height="1" fill="black" fill-opacity="0.3"/>
<g filter="url(#filter1_d_3641_1135)">
<mask id="path-5-inside-2_3641_1135" fill="white">
<path d="M260.45 192.5C260.45 185.873 265.823 180.5 272.45 180.5H436.45C443.078 180.5 448.45 185.873 448.45 192.5V211.5C448.45 218.127 443.078 223.5 436.45 223.5H272.45C265.823 223.5 260.45 218.127 260.45 211.5V192.5Z"/>
</mask>
<path d="M260.45 192.5C260.45 185.873 265.823 180.5 272.45 180.5H436.45C443.078 180.5 448.45 185.873 448.45 192.5V211.5C448.45 218.127 443.078 223.5 436.45 223.5H272.45C265.823 223.5 260.45 218.127 260.45 211.5V192.5Z" fill="#1E1E1E" shape-rendering="crispEdges"/>
<path d="M272.45 180.5V181.5H436.45V180.5V179.5H272.45V180.5ZM448.45 192.5H447.45V211.5H448.45H449.45V192.5H448.45ZM436.45 223.5V222.5H272.45V223.5V224.5H436.45V223.5ZM260.45 211.5H261.45V192.5H260.45H259.45V211.5H260.45ZM272.45 223.5V222.5C266.375 222.5 261.45 217.575 261.45 211.5H260.45H259.45C259.45 218.68 265.27 224.5 272.45 224.5V223.5ZM448.45 211.5H447.45C447.45 217.575 442.525 222.5 436.45 222.5V223.5V224.5C443.63 224.5 449.45 218.68 449.45 211.5H448.45ZM436.45 180.5V181.5C442.525 181.5 447.45 186.425 447.45 192.5H448.45H449.45C449.45 185.32 443.63 179.5 436.45 179.5V180.5ZM272.45 180.5V179.5C265.27 179.5 259.45 185.32 259.45 192.5H260.45H261.45C261.45 186.425 266.375 181.5 272.45 181.5V180.5Z" fill="white" fill-opacity="0.1" mask="url(#path-5-inside-2_3641_1135)"/>
<rect x="279.45" y="198" width="8" height="8" rx="4" fill="#22C55E"/>
<path d="M300.484 206.5V198.59H297.821V197.54H304.413V198.59H301.764V206.5H300.484ZM304.983 206.5V199.985H306.135L306.238 201.201C306.391 200.911 306.583 200.663 306.814 200.458C307.053 200.254 307.33 200.1 307.646 199.998C307.97 199.887 308.333 199.831 308.734 199.831V201.175H308.222C307.957 201.175 307.706 201.209 307.467 201.278C307.228 201.346 307.019 201.457 306.839 201.61C306.66 201.755 306.519 201.96 306.417 202.225C306.315 202.481 306.263 202.801 306.263 203.185V206.5H304.983ZM312.058 206.654C311.538 206.654 311.102 206.564 310.753 206.385C310.403 206.197 310.142 205.954 309.972 205.655C309.801 205.348 309.716 205.015 309.716 204.657C309.716 204.23 309.822 203.867 310.036 203.569C310.258 203.262 310.573 203.027 310.983 202.865C311.401 202.703 311.896 202.622 312.468 202.622H314.132C314.132 202.238 314.076 201.918 313.965 201.662C313.863 201.406 313.701 201.214 313.479 201.086C313.266 200.958 312.988 200.894 312.647 200.894C312.272 200.894 311.947 200.987 311.674 201.175C311.41 201.354 311.248 201.619 311.188 201.969H309.895C309.946 201.517 310.1 201.133 310.356 200.817C310.612 200.501 310.94 200.258 311.341 200.087C311.751 199.917 312.19 199.831 312.66 199.831C313.257 199.831 313.761 199.938 314.17 200.151C314.58 200.365 314.887 200.667 315.092 201.06C315.305 201.444 315.412 201.901 315.412 202.43V206.5H314.298L314.183 205.399C314.098 205.578 313.987 205.745 313.85 205.898C313.722 206.052 313.569 206.184 313.389 206.295C313.219 206.406 313.022 206.491 312.801 206.551C312.579 206.619 312.331 206.654 312.058 206.654ZM312.301 205.617C312.566 205.617 312.809 205.561 313.031 205.45C313.253 205.331 313.441 205.177 313.594 204.99C313.756 204.793 313.88 204.576 313.965 204.337C314.051 204.089 314.098 203.833 314.106 203.569V203.518H312.596C312.229 203.518 311.93 203.565 311.7 203.658C311.478 203.744 311.316 203.867 311.213 204.03C311.111 204.183 311.06 204.362 311.06 204.567C311.06 204.781 311.107 204.968 311.201 205.13C311.303 205.284 311.444 205.403 311.623 205.489C311.811 205.574 312.037 205.617 312.301 205.617ZM317.083 206.5V199.985H318.223L318.312 201.073C318.508 200.689 318.79 200.386 319.157 200.164C319.532 199.942 319.968 199.831 320.463 199.831C320.975 199.831 321.414 199.934 321.781 200.138C322.148 200.335 322.43 200.638 322.626 201.047C322.831 201.457 322.933 201.969 322.933 202.583V206.5H321.653V202.711C321.653 202.122 321.521 201.679 321.256 201.38C320.992 201.073 320.612 200.919 320.117 200.919C319.784 200.919 319.486 201 319.221 201.162C318.956 201.316 318.747 201.542 318.594 201.841C318.44 202.139 318.363 202.506 318.363 202.942V206.5H317.083ZM327.104 206.654C326.533 206.654 326.042 206.564 325.632 206.385C325.223 206.197 324.903 205.941 324.672 205.617C324.442 205.293 324.305 204.913 324.263 204.478H325.556C325.598 204.682 325.679 204.874 325.799 205.054C325.927 205.224 326.097 205.361 326.311 205.463C326.524 205.566 326.789 205.617 327.104 205.617C327.377 205.617 327.604 205.578 327.783 205.502C327.971 205.416 328.111 205.305 328.205 205.169C328.299 205.024 328.346 204.866 328.346 204.695C328.346 204.448 328.286 204.26 328.167 204.132C328.047 204.004 327.872 203.906 327.642 203.838C327.42 203.761 327.151 203.693 326.836 203.633C326.52 203.582 326.221 203.513 325.94 203.428C325.658 203.334 325.406 203.219 325.184 203.082C324.971 202.937 324.8 202.758 324.672 202.545C324.553 202.323 324.493 202.058 324.493 201.751C324.493 201.384 324.591 201.056 324.788 200.766C324.984 200.475 325.265 200.249 325.632 200.087C325.999 199.917 326.435 199.831 326.938 199.831C327.663 199.831 328.244 200.002 328.679 200.343C329.114 200.676 329.37 201.154 329.447 201.777H328.205C328.163 201.495 328.03 201.273 327.808 201.111C327.587 200.949 327.292 200.868 326.925 200.868C326.55 200.868 326.26 200.945 326.055 201.098C325.859 201.243 325.76 201.435 325.76 201.674C325.76 201.828 325.812 201.969 325.914 202.097C326.025 202.225 326.191 202.331 326.413 202.417C326.635 202.502 326.912 202.575 327.245 202.634C327.715 202.72 328.128 202.826 328.487 202.954C328.845 203.082 329.127 203.274 329.332 203.53C329.536 203.778 329.639 204.136 329.639 204.606C329.647 205.015 329.545 205.374 329.332 205.681C329.118 205.988 328.82 206.227 328.436 206.398C328.06 206.568 327.616 206.654 327.104 206.654ZM333.296 206.654C332.775 206.654 332.34 206.564 331.99 206.385C331.64 206.197 331.38 205.954 331.209 205.655C331.039 205.348 330.953 205.015 330.953 204.657C330.953 204.23 331.06 203.867 331.273 203.569C331.495 203.262 331.811 203.027 332.22 202.865C332.639 202.703 333.134 202.622 333.705 202.622H335.369C335.369 202.238 335.314 201.918 335.203 201.662C335.1 201.406 334.938 201.214 334.716 201.086C334.503 200.958 334.226 200.894 333.884 200.894C333.509 200.894 333.185 200.987 332.912 201.175C332.647 201.354 332.485 201.619 332.425 201.969H331.132C331.184 201.517 331.337 201.133 331.593 200.817C331.849 200.501 332.178 200.258 332.579 200.087C332.988 199.917 333.428 199.831 333.897 199.831C334.495 199.831 334.998 199.938 335.408 200.151C335.817 200.365 336.124 200.667 336.329 201.06C336.543 201.444 336.649 201.901 336.649 202.43V206.5H335.536L335.42 205.399C335.335 205.578 335.224 205.745 335.088 205.898C334.96 206.052 334.806 206.184 334.627 206.295C334.456 206.406 334.26 206.491 334.038 206.551C333.816 206.619 333.569 206.654 333.296 206.654ZM333.539 205.617C333.803 205.617 334.047 205.561 334.268 205.45C334.49 205.331 334.678 205.177 334.832 204.99C334.994 204.793 335.118 204.576 335.203 204.337C335.288 204.089 335.335 203.833 335.344 203.569V203.518H333.833C333.466 203.518 333.168 203.565 332.937 203.658C332.715 203.744 332.553 203.867 332.451 204.03C332.348 204.183 332.297 204.362 332.297 204.567C332.297 204.781 332.344 204.968 332.438 205.13C332.54 205.284 332.681 205.403 332.86 205.489C333.048 205.574 333.274 205.617 333.539 205.617ZM341.29 206.654C340.676 206.654 340.121 206.513 339.626 206.231C339.14 205.941 338.756 205.54 338.474 205.028C338.201 204.516 338.065 203.927 338.065 203.262C338.065 202.57 338.201 201.973 338.474 201.47C338.756 200.958 339.14 200.557 339.626 200.266C340.121 199.976 340.68 199.831 341.303 199.831C342.08 199.831 342.733 200.036 343.262 200.446C343.791 200.855 344.128 201.414 344.273 202.122H342.942C342.856 201.747 342.66 201.457 342.353 201.252C342.054 201.039 341.696 200.932 341.278 200.932C340.928 200.932 340.608 201.022 340.318 201.201C340.036 201.371 339.81 201.632 339.639 201.982C339.469 202.323 339.383 202.745 339.383 203.249C339.383 203.616 339.43 203.944 339.524 204.234C339.626 204.525 339.763 204.772 339.934 204.977C340.104 205.173 340.305 205.322 340.535 205.425C340.774 205.519 341.022 205.566 341.278 205.566C341.559 205.566 341.815 205.519 342.046 205.425C342.276 205.331 342.468 205.194 342.622 205.015C342.784 204.836 342.89 204.618 342.942 204.362H344.273C344.136 205.054 343.799 205.608 343.262 206.026C342.733 206.445 342.076 206.654 341.29 206.654ZM348.321 206.5C347.92 206.5 347.57 206.436 347.271 206.308C346.973 206.18 346.742 205.967 346.58 205.668C346.418 205.369 346.337 204.964 346.337 204.452V201.06H345.21V199.985H346.337L346.49 198.334H347.617V199.985H349.447V201.06H347.617V204.465C347.617 204.832 347.694 205.083 347.847 205.22C348.001 205.348 348.265 205.412 348.641 205.412H349.396V206.5H348.321ZM350.973 206.5V199.985H352.253V206.5H350.973ZM351.613 198.782C351.366 198.782 351.161 198.705 350.999 198.551C350.845 198.398 350.768 198.206 350.768 197.975C350.768 197.736 350.845 197.544 350.999 197.399C351.161 197.246 351.366 197.169 351.613 197.169C351.852 197.169 352.052 197.246 352.215 197.399C352.377 197.544 352.458 197.736 352.458 197.975C352.458 198.206 352.377 198.398 352.215 198.551C352.052 198.705 351.852 198.782 351.613 198.782ZM357.04 206.654C356.425 206.654 355.875 206.513 355.389 206.231C354.911 205.95 354.531 205.553 354.249 205.041C353.976 204.52 353.84 203.923 353.84 203.249C353.84 202.558 353.981 201.956 354.262 201.444C354.544 200.932 354.928 200.535 355.414 200.254C355.901 199.972 356.447 199.831 357.053 199.831C357.676 199.831 358.226 199.972 358.704 200.254C359.182 200.535 359.557 200.932 359.83 201.444C360.112 201.956 360.253 202.558 360.253 203.249C360.253 203.931 360.112 204.529 359.83 205.041C359.557 205.553 359.177 205.95 358.691 206.231C358.205 206.513 357.654 206.654 357.04 206.654ZM357.04 205.553C357.39 205.553 357.705 205.467 357.987 205.297C358.277 205.126 358.508 204.87 358.678 204.529C358.857 204.179 358.947 203.752 358.947 203.249C358.947 202.728 358.862 202.297 358.691 201.956C358.52 201.615 358.29 201.359 358 201.188C357.718 201.017 357.403 200.932 357.053 200.932C356.711 200.932 356.396 201.017 356.105 201.188C355.815 201.359 355.585 201.615 355.414 201.956C355.244 202.297 355.158 202.728 355.158 203.249C355.158 203.752 355.244 204.179 355.414 204.529C355.585 204.87 355.811 205.126 356.093 205.297C356.383 205.467 356.699 205.553 357.04 205.553ZM361.771 206.5V199.985H362.91L363 201.073C363.196 200.689 363.478 200.386 363.844 200.164C364.22 199.942 364.655 199.831 365.15 199.831C365.662 199.831 366.102 199.934 366.468 200.138C366.835 200.335 367.117 200.638 367.313 201.047C367.518 201.457 367.62 201.969 367.62 202.583V206.5H366.34V202.711C366.34 202.122 366.208 201.679 365.944 201.38C365.679 201.073 365.299 200.919 364.804 200.919C364.472 200.919 364.173 201 363.908 201.162C363.644 201.316 363.435 201.542 363.281 201.841C363.128 202.139 363.051 202.506 363.051 202.942V206.5H361.771ZM374.708 206.654C374.188 206.654 373.752 206.564 373.403 206.385C373.053 206.197 372.792 205.954 372.622 205.655C372.451 205.348 372.366 205.015 372.366 204.657C372.366 204.23 372.472 203.867 372.686 203.569C372.908 203.262 373.223 203.027 373.633 202.865C374.051 202.703 374.546 202.622 375.118 202.622H376.782C376.782 202.238 376.726 201.918 376.615 201.662C376.513 201.406 376.351 201.214 376.129 201.086C375.916 200.958 375.638 200.894 375.297 200.894C374.922 200.894 374.597 200.987 374.324 201.175C374.06 201.354 373.898 201.619 373.838 201.969H372.545C372.596 201.517 372.75 201.133 373.006 200.817C373.262 200.501 373.59 200.258 373.991 200.087C374.401 199.917 374.84 199.831 375.31 199.831C375.907 199.831 376.411 199.938 376.82 200.151C377.23 200.365 377.537 200.667 377.742 201.06C377.955 201.444 378.062 201.901 378.062 202.43V206.5H376.948L376.833 205.399C376.748 205.578 376.637 205.745 376.5 205.898C376.372 206.052 376.219 206.184 376.039 206.295C375.869 206.406 375.672 206.491 375.451 206.551C375.229 206.619 374.981 206.654 374.708 206.654ZM374.951 205.617C375.216 205.617 375.459 205.561 375.681 205.45C375.903 205.331 376.091 205.177 376.244 204.99C376.406 204.793 376.53 204.576 376.615 204.337C376.701 204.089 376.748 203.833 376.756 203.569V203.518H375.246C374.879 203.518 374.58 203.565 374.35 203.658C374.128 203.744 373.966 203.867 373.863 204.03C373.761 204.183 373.71 204.362 373.71 204.567C373.71 204.781 373.757 204.968 373.851 205.13C373.953 205.284 374.094 205.403 374.273 205.489C374.461 205.574 374.687 205.617 374.951 205.617ZM379.733 209.316V199.985H380.885L381.013 200.983C381.141 200.778 381.308 200.591 381.513 200.42C381.717 200.241 381.961 200.1 382.242 199.998C382.532 199.887 382.865 199.831 383.241 199.831C383.855 199.831 384.393 199.981 384.853 200.279C385.323 200.578 385.685 200.983 385.941 201.495C386.206 202.007 386.338 202.596 386.338 203.262C386.338 203.91 386.206 204.49 385.941 205.002C385.677 205.514 385.31 205.92 384.841 206.218C384.38 206.509 383.846 206.654 383.241 206.654C382.737 206.654 382.293 206.555 381.909 206.359C381.525 206.154 381.227 205.873 381.013 205.514V209.316H379.733ZM383.023 205.54C383.416 205.54 383.761 205.446 384.06 205.258C384.367 205.071 384.606 204.806 384.777 204.465C384.947 204.115 385.033 203.71 385.033 203.249C385.033 202.788 384.947 202.387 384.777 202.046C384.606 201.696 384.367 201.427 384.06 201.239C383.761 201.043 383.416 200.945 383.023 200.945C382.63 200.945 382.281 201.043 381.973 201.239C381.675 201.427 381.44 201.691 381.269 202.033C381.099 202.374 381.013 202.779 381.013 203.249C381.013 203.71 381.099 204.111 381.269 204.452C381.44 204.793 381.675 205.062 381.973 205.258C382.281 205.446 382.63 205.54 383.023 205.54ZM387.846 209.316V199.985H388.998L389.126 200.983C389.254 200.778 389.42 200.591 389.625 200.42C389.83 200.241 390.073 200.1 390.355 199.998C390.645 199.887 390.978 199.831 391.353 199.831C391.968 199.831 392.505 199.981 392.966 200.279C393.435 200.578 393.798 200.983 394.054 201.495C394.318 202.007 394.451 202.596 394.451 203.262C394.451 203.91 394.318 204.49 394.054 205.002C393.789 205.514 393.422 205.92 392.953 206.218C392.492 206.509 391.959 206.654 391.353 206.654C390.85 206.654 390.406 206.555 390.022 206.359C389.638 206.154 389.339 205.873 389.126 205.514V209.316H387.846ZM391.136 205.54C391.528 205.54 391.874 205.446 392.172 205.258C392.48 205.071 392.718 204.806 392.889 204.465C393.06 204.115 393.145 203.71 393.145 203.249C393.145 202.788 393.06 202.387 392.889 202.046C392.718 201.696 392.48 201.427 392.172 201.239C391.874 201.043 391.528 200.945 391.136 200.945C390.743 200.945 390.393 201.043 390.086 201.239C389.787 201.427 389.553 201.691 389.382 202.033C389.211 202.374 389.126 202.779 389.126 203.249C389.126 203.71 389.211 204.111 389.382 204.452C389.553 204.793 389.787 205.062 390.086 205.258C390.393 205.446 390.743 205.54 391.136 205.54ZM395.958 206.5V199.985H397.11L397.213 201.201C397.366 200.911 397.558 200.663 397.789 200.458C398.028 200.254 398.305 200.1 398.621 199.998C398.945 199.887 399.308 199.831 399.709 199.831V201.175H399.197C398.932 201.175 398.681 201.209 398.442 201.278C398.203 201.346 397.994 201.457 397.814 201.61C397.635 201.755 397.494 201.96 397.392 202.225C397.29 202.481 397.238 202.801 397.238 203.185V206.5H395.958ZM403.665 206.654C403.051 206.654 402.5 206.513 402.014 206.231C401.536 205.95 401.156 205.553 400.874 205.041C400.601 204.52 400.465 203.923 400.465 203.249C400.465 202.558 400.606 201.956 400.887 201.444C401.169 200.932 401.553 200.535 402.039 200.254C402.526 199.972 403.072 199.831 403.678 199.831C404.301 199.831 404.851 199.972 405.329 200.254C405.807 200.535 406.182 200.932 406.455 201.444C406.737 201.956 406.878 202.558 406.878 203.249C406.878 203.931 406.737 204.529 406.455 205.041C406.182 205.553 405.803 205.95 405.316 206.231C404.83 206.513 404.279 206.654 403.665 206.654ZM403.665 205.553C404.015 205.553 404.331 205.467 404.612 205.297C404.902 205.126 405.133 204.87 405.303 204.529C405.483 204.179 405.572 203.752 405.572 203.249C405.572 202.728 405.487 202.297 405.316 201.956C405.145 201.615 404.915 201.359 404.625 201.188C404.343 201.017 404.028 200.932 403.678 200.932C403.336 200.932 403.021 201.017 402.731 201.188C402.44 201.359 402.21 201.615 402.039 201.956C401.869 202.297 401.783 202.728 401.783 203.249C401.783 203.752 401.869 204.179 402.039 204.529C402.21 204.87 402.436 205.126 402.718 205.297C403.008 205.467 403.324 205.553 403.665 205.553ZM409.927 206.5L407.482 199.985H408.826L410.682 205.271L412.551 199.985H413.869L411.437 206.5H409.927ZM417.626 206.654C417.012 206.654 416.466 206.513 415.988 206.231C415.51 205.95 415.135 205.553 414.862 205.041C414.597 204.529 414.465 203.936 414.465 203.262C414.465 202.579 414.597 201.982 414.862 201.47C415.135 200.949 415.51 200.548 415.988 200.266C416.466 199.976 417.016 199.831 417.639 199.831C418.279 199.831 418.825 199.972 419.278 200.254C419.73 200.535 420.076 200.915 420.315 201.393C420.553 201.862 420.673 202.383 420.673 202.954C420.673 203.04 420.673 203.129 420.673 203.223C420.673 203.317 420.669 203.424 420.66 203.543H415.412V202.634H419.406C419.38 202.088 419.201 201.662 418.868 201.354C418.535 201.047 418.121 200.894 417.626 200.894C417.285 200.894 416.969 200.975 416.679 201.137C416.389 201.29 416.155 201.525 415.975 201.841C415.805 202.148 415.719 202.532 415.719 202.993V203.364C415.719 203.842 415.805 204.247 415.975 204.58C416.155 204.913 416.385 205.165 416.667 205.335C416.957 205.506 417.277 205.591 417.626 205.591C418.045 205.591 418.382 205.506 418.638 205.335C418.902 205.156 419.094 204.913 419.214 204.606H420.494C420.383 204.998 420.195 205.348 419.931 205.655C419.675 205.962 419.35 206.206 418.958 206.385C418.574 206.564 418.13 206.654 417.626 206.654ZM424.95 206.654C424.344 206.654 423.806 206.509 423.337 206.218C422.876 205.92 422.513 205.514 422.249 205.002C421.993 204.482 421.865 203.893 421.865 203.236C421.865 202.579 421.993 201.994 422.249 201.482C422.513 200.97 422.88 200.569 423.35 200.279C423.828 199.981 424.374 199.831 424.988 199.831C425.492 199.831 425.931 199.934 426.307 200.138C426.682 200.335 426.981 200.612 427.203 200.97V197.284H428.483V206.5H427.331L427.203 205.489C427.066 205.694 426.895 205.886 426.691 206.065C426.486 206.235 426.238 206.376 425.948 206.487C425.667 206.598 425.334 206.654 424.95 206.654ZM425.18 205.54C425.581 205.54 425.931 205.446 426.23 205.258C426.528 205.062 426.763 204.793 426.934 204.452C427.104 204.111 427.19 203.705 427.19 203.236C427.19 202.775 427.104 202.374 426.934 202.033C426.763 201.691 426.524 201.427 426.217 201.239C425.918 201.043 425.573 200.945 425.18 200.945C424.796 200.945 424.451 201.043 424.143 201.239C423.836 201.427 423.597 201.691 423.427 202.033C423.256 202.374 423.171 202.775 423.171 203.236C423.171 203.697 423.256 204.102 423.427 204.452C423.597 204.793 423.836 205.062 424.143 205.258C424.451 205.446 424.796 205.54 425.18 205.54Z" fill="white"/>
</g>
<path d="M152.584 237.06C150.44 237.06 148.64 236.828 147.184 236.364C145.744 235.9 144.656 235.26 143.92 234.444C143.2 233.628 142.84 232.692 142.84 231.636C142.84 230.484 143.264 229.5 144.112 228.684C144.96 227.868 146.312 227.244 148.168 226.812C150.04 226.364 152.496 226.14 155.536 226.14C158.576 226.14 161.088 226.324 163.072 226.692C165.056 227.06 166.528 227.628 167.488 228.396C168.464 229.148 168.952 230.132 168.952 231.348C168.952 231.844 168.816 232.364 168.544 232.908C168.272 233.452 167.792 234.036 167.104 234.66C167.04 234.724 166.832 234.908 166.48 235.212C166.128 235.516 165.68 235.892 165.136 236.34C164.608 236.788 164.032 237.268 163.408 237.78C162.784 238.292 162.168 238.804 161.56 239.316C160.952 239.828 160.392 240.292 159.88 240.708C159.384 241.124 158.984 241.46 158.68 241.716C158.376 241.972 158.224 242.1 158.224 242.1H150.136L165.328 231.348L166.864 230.388C165.616 231.444 164.456 232.388 163.384 233.22C162.312 234.052 161.232 234.756 160.144 235.332C159.072 235.892 157.928 236.324 156.712 236.628C155.496 236.916 154.12 237.06 152.584 237.06ZM155.536 230.1C153.264 230.1 151.576 230.22 150.472 230.46C149.384 230.684 148.84 231.116 148.84 231.756C148.84 232.348 149.384 232.78 150.472 233.052C151.576 233.324 153.264 233.46 155.536 233.46C157.808 233.46 159.608 233.324 160.936 233.052C162.28 232.78 162.952 232.348 162.952 231.756C162.952 231.324 162.648 230.988 162.04 230.748C161.432 230.508 160.576 230.34 159.472 230.244C158.368 230.148 157.056 230.1 155.536 230.1ZM169.797 226.74H183.909V230.34H169.797V226.74ZM173.973 223.14H179.733V238.5H173.973V223.14ZM201.259 238.5V234.132C201.259 233.412 201.115 232.804 200.827 232.308C200.539 231.812 200.027 231.444 199.291 231.204C198.571 230.948 197.547 230.82 196.219 230.82C195.467 230.82 194.731 230.892 194.011 231.036C193.307 231.164 192.667 231.324 192.091 231.516C191.531 231.708 191.083 231.9 190.747 232.092L190.699 230.94C190.763 230.7 190.979 230.34 191.347 229.86C191.731 229.364 192.283 228.852 193.003 228.324C193.723 227.78 194.627 227.324 195.715 226.956C196.819 226.572 198.123 226.38 199.627 226.38C200.571 226.38 201.483 226.468 202.363 226.644C203.243 226.82 204.027 227.116 204.715 227.532C205.419 227.932 205.979 228.476 206.395 229.164C206.811 229.852 207.019 230.708 207.019 231.732V238.5H201.259ZM185.227 238.5V221.94H190.987V238.5H185.227Z" fill="#E8231A"/>
<path d="M214.863 234.54V230.34H226.839C227.319 230.34 227.719 230.268 228.039 230.124C228.375 229.964 228.543 229.636 228.543 229.14C228.543 228.628 228.375 228.3 228.039 228.156C227.719 228.012 227.319 227.94 226.839 227.94H215.247V238.5H209.247V223.14H225.903C227.103 223.14 228.223 223.228 229.263 223.404C230.319 223.564 231.239 223.86 232.023 224.292C232.807 224.724 233.423 225.332 233.871 226.116C234.319 226.9 234.543 227.908 234.543 229.14C234.543 230.372 234.319 231.348 233.871 232.068C233.423 232.788 232.807 233.324 232.023 233.676C231.239 234.028 230.319 234.26 229.263 234.372C228.223 234.484 227.103 234.54 225.903 234.54H214.863ZM244.935 238.836C243.207 238.836 241.671 238.596 240.327 238.116C238.983 237.62 237.919 236.908 237.135 235.98C236.367 235.052 235.983 233.932 235.983 232.62C235.983 231.244 236.367 230.092 237.135 229.164C237.919 228.236 238.983 227.54 240.327 227.076C241.671 226.612 243.207 226.38 244.935 226.38C246.855 226.38 248.511 226.644 249.903 227.172C251.311 227.684 252.391 228.412 253.143 229.356C253.911 230.284 254.295 231.372 254.295 232.62C254.295 233.548 254.079 234.396 253.647 235.164C253.215 235.916 252.591 236.572 251.775 237.132C250.959 237.676 249.975 238.1 248.823 238.404C247.671 238.692 246.375 238.836 244.935 238.836ZM247.095 235.188C248.311 235.188 249.423 235.116 250.431 234.972C251.455 234.812 252.271 234.548 252.879 234.18C253.503 233.812 253.815 233.292 253.815 232.62C253.815 231.932 253.503 231.404 252.879 231.036C252.271 230.668 251.455 230.412 250.431 230.268C249.423 230.124 248.311 230.052 247.095 230.052C245.463 230.052 244.199 230.268 243.303 230.7C242.407 231.116 241.959 231.756 241.959 232.62C241.959 233.18 242.159 233.652 242.559 234.036C242.959 234.42 243.543 234.708 244.311 234.9C245.079 235.092 246.007 235.188 247.095 235.188ZM253.815 226.74H259.575V238.5H254.151C254.151 238.5 254.119 238.316 254.055 237.948C254.007 237.58 253.951 237.052 253.887 236.364C253.839 235.676 253.815 234.868 253.815 233.94V226.74ZM260.306 226.74H266.426L273.434 238.02L268.466 238.5L260.306 226.74ZM282.386 226.74L270.698 243.3H264.818L269.834 236.508L276.266 226.74H282.386Z" fill="white"/>
<path d="M145.45 260.638C144.86 260.638 144.346 260.531 143.909 260.316C143.472 260.101 143.135 259.802 142.897 259.419C142.659 259.036 142.541 258.591 142.541 258.085H143.553C143.553 258.399 143.625 258.691 143.771 258.959C143.917 259.22 144.128 259.43 144.404 259.591C144.687 259.745 145.036 259.821 145.45 259.821C145.81 259.821 146.117 259.764 146.37 259.649C146.631 259.526 146.826 259.361 146.957 259.154C147.095 258.947 147.164 258.714 147.164 258.453C147.164 258.154 147.095 257.909 146.957 257.717C146.826 257.518 146.646 257.357 146.416 257.234C146.194 257.104 145.933 256.992 145.634 256.9C145.343 256.801 145.032 256.693 144.703 256.578C144.043 256.364 143.564 256.095 143.265 255.773C142.966 255.451 142.817 255.034 142.817 254.52C142.817 254.083 142.916 253.7 143.116 253.37C143.323 253.04 143.614 252.783 143.99 252.599C144.373 252.408 144.825 252.312 145.347 252.312C145.86 252.312 146.305 252.408 146.681 252.599C147.064 252.791 147.363 253.056 147.578 253.393C147.792 253.723 147.9 254.106 147.9 254.543H146.888C146.888 254.321 146.83 254.102 146.715 253.887C146.6 253.673 146.424 253.496 146.186 253.358C145.956 253.213 145.665 253.14 145.312 253.14C145.021 253.132 144.76 253.182 144.53 253.289C144.308 253.389 144.131 253.535 144.001 253.726C143.878 253.918 143.817 254.152 143.817 254.428C143.817 254.689 143.871 254.899 143.978 255.06C144.093 255.221 144.254 255.359 144.461 255.474C144.676 255.582 144.925 255.681 145.209 255.773C145.492 255.865 145.807 255.969 146.152 256.084C146.543 256.214 146.888 256.375 147.187 256.567C147.493 256.751 147.731 256.989 147.9 257.28C148.076 257.571 148.164 257.943 148.164 258.395C148.164 258.779 148.061 259.143 147.854 259.488C147.654 259.825 147.355 260.101 146.957 260.316C146.558 260.531 146.056 260.638 145.45 260.638ZM150.731 260.5V252.45H151.858L154.652 258.096L157.424 252.45H158.562V260.5H157.596V254.186L155.009 259.407H154.284L151.697 254.221V260.5H150.731ZM160.945 260.5L163.912 252.45H164.935L167.891 260.5H166.856L164.418 253.657L161.957 260.5H160.945ZM162.302 258.43L162.578 257.648H166.223L166.499 258.43H162.302ZM170.262 260.5V252.45H172.861C173.49 252.45 174.003 252.557 174.402 252.772C174.801 252.979 175.096 253.259 175.288 253.611C175.479 253.964 175.575 254.363 175.575 254.807C175.575 255.237 175.475 255.632 175.276 255.992C175.084 256.352 174.785 256.64 174.379 256.854C173.973 257.069 173.451 257.176 172.815 257.176H171.228V260.5H170.262ZM174.517 260.5L172.746 256.9H173.827L175.656 260.5H174.517ZM171.228 256.417H172.792C173.405 256.417 173.854 256.268 174.138 255.969C174.429 255.67 174.575 255.287 174.575 254.819C174.575 254.344 174.433 253.968 174.149 253.692C173.873 253.408 173.417 253.266 172.781 253.266H171.228V256.417ZM180.139 260.5V253.243H177.736V252.45H183.509V253.243H181.105V260.5H180.139ZM190.126 260.5V252.45H192.736C193.373 252.45 193.894 252.557 194.3 252.772C194.714 252.979 195.021 253.263 195.22 253.623C195.42 253.983 195.519 254.39 195.519 254.842C195.519 255.294 195.42 255.701 195.22 256.061C195.029 256.421 194.726 256.709 194.312 256.923C193.906 257.138 193.38 257.245 192.736 257.245H191.092V260.5H190.126ZM191.092 256.429H192.713C193.38 256.429 193.848 256.287 194.116 256.003C194.392 255.712 194.53 255.325 194.53 254.842C194.53 254.344 194.392 253.956 194.116 253.68C193.848 253.397 193.38 253.255 192.713 253.255H191.092V256.429ZM201.467 260.638C200.716 260.638 200.053 260.466 199.478 260.121C198.903 259.768 198.454 259.281 198.132 258.66C197.81 258.031 197.649 257.303 197.649 256.475C197.649 255.655 197.81 254.934 198.132 254.313C198.454 253.684 198.903 253.194 199.478 252.841C200.053 252.488 200.716 252.312 201.467 252.312C202.234 252.312 202.905 252.488 203.48 252.841C204.055 253.194 204.499 253.684 204.814 254.313C205.128 254.934 205.285 255.655 205.285 256.475C205.285 257.303 205.128 258.031 204.814 258.66C204.499 259.281 204.055 259.768 203.48 260.121C202.905 260.466 202.234 260.638 201.467 260.638ZM201.467 259.787C202.035 259.787 202.529 259.657 202.951 259.396C203.38 259.128 203.71 258.748 203.94 258.257C204.177 257.759 204.296 257.165 204.296 256.475C204.296 255.785 204.177 255.195 203.94 254.704C203.71 254.206 203.38 253.826 202.951 253.565C202.529 253.305 202.035 253.174 201.467 253.174C200.908 253.174 200.413 253.305 199.984 253.565C199.562 253.826 199.232 254.206 198.995 254.704C198.757 255.195 198.638 255.785 198.638 256.475C198.638 257.165 198.757 257.759 198.995 258.257C199.232 258.748 199.562 259.128 199.984 259.396C200.413 259.657 200.908 259.787 201.467 259.787ZM210.437 260.638C209.846 260.638 209.333 260.531 208.896 260.316C208.459 260.101 208.121 259.802 207.884 259.419C207.646 259.036 207.527 258.591 207.527 258.085H208.539C208.539 258.399 208.612 258.691 208.758 258.959C208.903 259.22 209.114 259.43 209.39 259.591C209.674 259.745 210.023 259.821 210.437 259.821C210.797 259.821 211.104 259.764 211.357 259.649C211.617 259.526 211.813 259.361 211.943 259.154C212.081 258.947 212.15 258.714 212.15 258.453C212.15 258.154 212.081 257.909 211.943 257.717C211.813 257.518 211.633 257.357 211.403 257.234C211.18 257.104 210.92 256.992 210.621 256.9C210.329 256.801 210.019 256.693 209.689 256.578C209.03 256.364 208.551 256.095 208.252 255.773C207.953 255.451 207.803 255.034 207.803 254.52C207.803 254.083 207.903 253.7 208.102 253.37C208.309 253.04 208.6 252.783 208.976 252.599C209.359 252.408 209.812 252.312 210.333 252.312C210.847 252.312 211.291 252.408 211.667 252.599C212.05 252.791 212.349 253.056 212.564 253.393C212.779 253.723 212.886 254.106 212.886 254.543H211.874C211.874 254.321 211.817 254.102 211.702 253.887C211.587 253.673 211.41 253.496 211.173 253.358C210.943 253.213 210.651 253.14 210.299 253.14C210.007 253.132 209.747 253.182 209.517 253.289C209.294 253.389 209.118 253.535 208.988 253.726C208.865 253.918 208.804 254.152 208.804 254.428C208.804 254.689 208.857 254.899 208.965 255.06C209.08 255.221 209.241 255.359 209.448 255.474C209.662 255.582 209.911 255.681 210.195 255.773C210.479 255.865 210.793 255.969 211.138 256.084C211.529 256.214 211.874 256.375 212.173 256.567C212.48 256.751 212.717 256.989 212.886 257.28C213.062 257.571 213.151 257.943 213.151 258.395C213.151 258.779 213.047 259.143 212.84 259.488C212.641 259.825 212.342 260.101 211.943 260.316C211.544 260.531 211.042 260.638 210.437 260.638ZM221.821 260.5V253.243H219.417V252.45H225.19V253.243H222.787V260.5H221.821ZM227.578 260.5V252.45H232.558V253.243H228.544V256.049H232.213V256.831H228.544V259.706H232.558V260.5H227.578ZM235.255 260.5V252.45H237.854C238.483 252.45 238.996 252.557 239.395 252.772C239.794 252.979 240.089 253.259 240.281 253.611C240.472 253.964 240.568 254.363 240.568 254.807C240.568 255.237 240.468 255.632 240.269 255.992C240.077 256.352 239.778 256.64 239.372 256.854C238.966 257.069 238.444 257.176 237.808 257.176H236.221V260.5H235.255ZM239.51 260.5L237.739 256.9H238.82L240.649 260.5H239.51ZM236.221 256.417H237.785C238.398 256.417 238.847 256.268 239.131 255.969C239.422 255.67 239.568 255.287 239.568 254.819C239.568 254.344 239.426 253.968 239.142 253.692C238.866 253.408 238.41 253.266 237.774 253.266H236.221V256.417ZM243.258 260.5V252.45H244.385L247.179 258.096L249.951 252.45H251.089V260.5H250.123V254.186L247.536 259.407H246.811L244.224 254.221V260.5H243.258ZM253.989 260.5V252.45H254.955V260.5H253.989ZM257.859 260.5V252.45H258.825L263.115 258.913V252.45H264.081V260.5H263.115L258.825 254.037V260.5H257.859ZM266.467 260.5L269.434 252.45H270.458L273.413 260.5H272.378L269.94 253.657L267.479 260.5H266.467ZM267.824 258.43L268.1 257.648H271.746L272.022 258.43H267.824ZM275.785 260.5V252.45H276.751V259.729H280.5V260.5H275.785Z" fill="#888888"/>
<g filter="url(#filter2_d_3641_1135)">
<mask id="path-11-inside-3_3641_1135" fill="white">
<path d="M80 288.5C80 281.873 85.3726 276.5 92 276.5H218C224.627 276.5 230 281.873 230 288.5V307.5C230 314.127 224.627 319.5 218 319.5H92C85.3726 319.5 80 314.127 80 307.5V288.5Z"/>
</mask>
<path d="M80 288.5C80 281.873 85.3726 276.5 92 276.5H218C224.627 276.5 230 281.873 230 288.5V307.5C230 314.127 224.627 319.5 218 319.5H92C85.3726 319.5 80 314.127 80 307.5V288.5Z" fill="#1E1E1E" shape-rendering="crispEdges"/>
<path d="M92 276.5V277.5H218V276.5V275.5H92V276.5ZM230 288.5H229V307.5H230H231V288.5H230ZM218 319.5V318.5H92V319.5V320.5H218V319.5ZM80 307.5H81V288.5H80H79V307.5H80ZM92 319.5V318.5C85.9249 318.5 81 313.575 81 307.5H80H79C79 314.68 84.8203 320.5 92 320.5V319.5ZM230 307.5H229C229 313.575 224.075 318.5 218 318.5V319.5V320.5C225.18 320.5 231 314.68 231 307.5H230ZM218 276.5V277.5C224.075 277.5 229 282.425 229 288.5H230H231C231 281.32 225.18 275.5 218 275.5V276.5ZM92 276.5V275.5C84.8203 275.5 79 281.32 79 288.5H80H81C81 282.425 85.9249 277.5 92 277.5V276.5Z" fill="white" fill-opacity="0.1" mask="url(#path-11-inside-3_3641_1135)"/>
<rect x="99" y="294" width="8" height="8" rx="4" fill="#22C55E"/>
<path d="M118.05 302.5V299.249H117.128V298.391H118.05V297.38H117.128V296.522H118.05V293.361H119.586L120.738 296.522H122.146V293.361H123.272V296.522H124.194V297.38H123.272V298.391H124.194V299.249H123.272V302.5H121.736L120.571 299.249H119.176V302.5H118.05ZM119.176 298.391H120.277L119.918 297.38H119.15L119.176 298.391ZM122.158 300.644H122.21L122.171 299.249H121.685L122.158 300.644ZM119.138 296.522H119.624L119.138 295.038H119.086L119.138 296.522ZM121.39 298.391H122.171L122.146 297.38H121.032L121.39 298.391ZM126.373 302.5V294.986L124.747 295.434V294.462L126.847 293.54H127.679V302.5H126.373ZM129.393 302.5V301.578C129.99 301.118 130.558 300.653 131.095 300.183C131.642 299.714 132.124 299.249 132.542 298.788C132.968 298.319 133.301 297.862 133.54 297.418C133.788 296.966 133.911 296.535 133.911 296.126C133.911 295.835 133.856 295.567 133.745 295.319C133.643 295.072 133.48 294.871 133.259 294.718C133.037 294.555 132.734 294.474 132.35 294.474C131.983 294.474 131.671 294.555 131.415 294.718C131.168 294.88 130.98 295.097 130.852 295.37C130.733 295.635 130.673 295.929 130.673 296.254H129.444C129.453 295.639 129.585 295.119 129.841 294.692C130.097 294.265 130.443 293.941 130.878 293.719C131.322 293.497 131.821 293.386 132.375 293.386C132.939 293.386 133.429 293.493 133.847 293.706C134.274 293.911 134.603 294.214 134.833 294.615C135.072 295.008 135.191 295.49 135.191 296.062C135.191 296.471 135.106 296.881 134.935 297.29C134.773 297.691 134.551 298.084 134.27 298.468C133.997 298.852 133.685 299.223 133.335 299.582C132.994 299.931 132.64 300.264 132.273 300.58C131.915 300.896 131.569 301.182 131.236 301.438H135.46V302.5H129.393ZM136.204 304.074L136.933 301.118H138.226L137.061 304.074H136.204ZM142.681 302.654C142.058 302.654 141.521 302.543 141.069 302.321C140.616 302.099 140.258 301.796 139.993 301.412C139.737 301.028 139.58 300.593 139.52 300.106H140.774C140.86 300.533 141.069 300.883 141.401 301.156C141.743 301.429 142.174 301.566 142.694 301.566C143.078 301.566 143.407 301.476 143.68 301.297C143.961 301.109 144.179 300.857 144.333 300.542C144.486 300.226 144.563 299.872 144.563 299.479C144.563 299.078 144.486 298.728 144.333 298.43C144.179 298.122 143.966 297.883 143.693 297.713C143.42 297.542 143.1 297.457 142.733 297.457C142.289 297.457 141.909 297.555 141.593 297.751C141.278 297.947 141.047 298.191 140.902 298.481H139.661L140.39 293.54H145.229V294.654H141.363L140.902 297.175C141.107 296.953 141.38 296.77 141.721 296.625C142.071 296.471 142.468 296.394 142.912 296.394C143.364 296.394 143.765 296.475 144.115 296.638C144.473 296.8 144.776 297.022 145.024 297.303C145.28 297.585 145.472 297.909 145.6 298.276C145.736 298.643 145.805 299.04 145.805 299.466C145.805 299.91 145.732 300.324 145.587 300.708C145.442 301.092 145.233 301.433 144.96 301.732C144.687 302.022 144.358 302.248 143.974 302.41C143.599 302.573 143.168 302.654 142.681 302.654ZM150.915 302.654C150.13 302.654 149.452 302.462 148.88 302.078C148.317 301.685 147.882 301.143 147.575 300.452C147.276 299.752 147.127 298.942 147.127 298.02C147.127 297.098 147.276 296.292 147.575 295.601C147.882 294.901 148.317 294.359 148.88 293.975C149.452 293.583 150.13 293.386 150.915 293.386C151.7 293.386 152.37 293.583 152.925 293.975C153.48 294.359 153.906 294.901 154.205 295.601C154.512 296.292 154.666 297.098 154.666 298.02C154.666 298.942 154.512 299.752 154.205 300.452C153.906 301.143 153.475 301.685 152.912 302.078C152.358 302.462 151.692 302.654 150.915 302.654ZM150.903 301.514C151.38 301.514 151.803 301.374 152.17 301.092C152.537 300.81 152.827 300.409 153.04 299.889C153.254 299.368 153.36 298.745 153.36 298.02C153.36 297.286 153.254 296.663 153.04 296.151C152.827 295.631 152.537 295.234 152.17 294.961C151.803 294.679 151.38 294.538 150.903 294.538C150.425 294.538 149.998 294.679 149.623 294.961C149.256 295.234 148.966 295.631 148.752 296.151C148.547 296.663 148.445 297.286 148.445 298.02C148.445 298.745 148.547 299.368 148.752 299.889C148.966 300.409 149.256 300.81 149.623 301.092C149.998 301.374 150.425 301.514 150.903 301.514ZM159.665 302.654C158.88 302.654 158.202 302.462 157.63 302.078C157.067 301.685 156.632 301.143 156.325 300.452C156.026 299.752 155.877 298.942 155.877 298.02C155.877 297.098 156.026 296.292 156.325 295.601C156.632 294.901 157.067 294.359 157.63 293.975C158.202 293.583 158.88 293.386 159.665 293.386C160.45 293.386 161.12 293.583 161.675 293.975C162.23 294.359 162.656 294.901 162.955 295.601C163.262 296.292 163.416 297.098 163.416 298.02C163.416 298.942 163.262 299.752 162.955 300.452C162.656 301.143 162.225 301.685 161.662 302.078C161.108 302.462 160.442 302.654 159.665 302.654ZM159.653 301.514C160.13 301.514 160.553 301.374 160.92 301.092C161.287 300.81 161.577 300.409 161.79 299.889C162.004 299.368 162.11 298.745 162.11 298.02C162.11 297.286 162.004 296.663 161.79 296.151C161.577 295.631 161.287 295.234 160.92 294.961C160.553 294.679 160.13 294.538 159.653 294.538C159.175 294.538 158.748 294.679 158.373 294.961C158.006 295.234 157.716 295.631 157.502 296.151C157.297 296.663 157.195 297.286 157.195 298.02C157.195 298.745 157.297 299.368 157.502 299.889C157.716 300.409 158.006 300.81 158.373 301.092C158.748 301.374 159.175 301.514 159.653 301.514ZM170.692 302.654C170.12 302.654 169.629 302.564 169.22 302.385C168.81 302.197 168.49 301.941 168.26 301.617C168.029 301.293 167.893 300.913 167.85 300.478H169.143C169.186 300.682 169.267 300.874 169.386 301.054C169.514 301.224 169.685 301.361 169.898 301.463C170.111 301.566 170.376 301.617 170.692 301.617C170.965 301.617 171.191 301.578 171.37 301.502C171.558 301.416 171.699 301.305 171.793 301.169C171.886 301.024 171.933 300.866 171.933 300.695C171.933 300.448 171.874 300.26 171.754 300.132C171.635 300.004 171.46 299.906 171.229 299.838C171.007 299.761 170.739 299.693 170.423 299.633C170.107 299.582 169.809 299.513 169.527 299.428C169.245 299.334 168.994 299.219 168.772 299.082C168.558 298.937 168.388 298.758 168.26 298.545C168.14 298.323 168.081 298.058 168.081 297.751C168.081 297.384 168.179 297.056 168.375 296.766C168.571 296.475 168.853 296.249 169.22 296.087C169.587 295.917 170.022 295.831 170.525 295.831C171.251 295.831 171.831 296.002 172.266 296.343C172.701 296.676 172.957 297.154 173.034 297.777H171.793C171.75 297.495 171.618 297.273 171.396 297.111C171.174 296.949 170.879 296.868 170.513 296.868C170.137 296.868 169.847 296.945 169.642 297.098C169.446 297.243 169.348 297.435 169.348 297.674C169.348 297.828 169.399 297.969 169.501 298.097C169.612 298.225 169.779 298.331 170.001 298.417C170.222 298.502 170.5 298.575 170.833 298.634C171.302 298.72 171.716 298.826 172.074 298.954C172.433 299.082 172.714 299.274 172.919 299.53C173.124 299.778 173.226 300.136 173.226 300.606C173.235 301.015 173.132 301.374 172.919 301.681C172.706 301.988 172.407 302.227 172.023 302.398C171.647 302.568 171.204 302.654 170.692 302.654ZM177.664 302.654C177.049 302.654 176.503 302.513 176.025 302.231C175.548 301.95 175.172 301.553 174.899 301.041C174.634 300.529 174.502 299.936 174.502 299.262C174.502 298.579 174.634 297.982 174.899 297.47C175.172 296.949 175.548 296.548 176.025 296.266C176.503 295.976 177.054 295.831 177.677 295.831C178.317 295.831 178.863 295.972 179.315 296.254C179.767 296.535 180.113 296.915 180.352 297.393C180.591 297.862 180.71 298.383 180.71 298.954C180.71 299.04 180.71 299.129 180.71 299.223C180.71 299.317 180.706 299.424 180.697 299.543H175.449V298.634H179.443C179.417 298.088 179.238 297.662 178.905 297.354C178.573 297.047 178.159 296.894 177.664 296.894C177.322 296.894 177.007 296.975 176.717 297.137C176.426 297.29 176.192 297.525 176.013 297.841C175.842 298.148 175.757 298.532 175.757 298.993V299.364C175.757 299.842 175.842 300.247 176.013 300.58C176.192 300.913 176.422 301.165 176.704 301.335C176.994 301.506 177.314 301.591 177.664 301.591C178.082 301.591 178.419 301.506 178.675 301.335C178.94 301.156 179.132 300.913 179.251 300.606H180.531C180.42 300.998 180.232 301.348 179.968 301.655C179.712 301.962 179.388 302.206 178.995 302.385C178.611 302.564 178.167 302.654 177.664 302.654ZM184.646 302.5C184.245 302.5 183.895 302.436 183.596 302.308C183.297 302.18 183.067 301.967 182.905 301.668C182.743 301.369 182.662 300.964 182.662 300.452V297.06H181.535V295.985H182.662L182.815 294.334H183.942V295.985H185.772V297.06H183.942V300.465C183.942 300.832 184.018 301.083 184.172 301.22C184.326 301.348 184.59 301.412 184.966 301.412H185.721V302.5H184.646ZM189.871 302.5C189.47 302.5 189.12 302.436 188.821 302.308C188.522 302.18 188.292 301.967 188.13 301.668C187.968 301.369 187.887 300.964 187.887 300.452V297.06H186.76V295.985H187.887L188.04 294.334H189.167V295.985H190.997V297.06H189.167V300.465C189.167 300.832 189.243 301.083 189.397 301.22C189.551 301.348 189.815 301.412 190.191 301.412H190.946V302.5H189.871ZM192.433 302.5V293.284H193.713V302.5H192.433ZM198.389 302.654C197.774 302.654 197.228 302.513 196.75 302.231C196.273 301.95 195.897 301.553 195.624 301.041C195.359 300.529 195.227 299.936 195.227 299.262C195.227 298.579 195.359 297.982 195.624 297.47C195.897 296.949 196.273 296.548 196.75 296.266C197.228 295.976 197.779 295.831 198.402 295.831C199.042 295.831 199.588 295.972 200.04 296.254C200.492 296.535 200.838 296.915 201.077 297.393C201.316 297.862 201.435 298.383 201.435 298.954C201.435 299.04 201.435 299.129 201.435 299.223C201.435 299.317 201.431 299.424 201.422 299.543H196.174V298.634H200.168C200.142 298.088 199.963 297.662 199.63 297.354C199.298 297.047 198.884 296.894 198.389 296.894C198.047 296.894 197.732 296.975 197.442 297.137C197.151 297.29 196.917 297.525 196.738 297.841C196.567 298.148 196.482 298.532 196.482 298.993V299.364C196.482 299.842 196.567 300.247 196.738 300.58C196.917 300.913 197.147 301.165 197.429 301.335C197.719 301.506 198.039 301.591 198.389 301.591C198.807 301.591 199.144 301.506 199.4 301.335C199.665 301.156 199.857 300.913 199.976 300.606H201.256C201.145 300.998 200.957 301.348 200.693 301.655C200.437 301.962 200.113 302.206 199.72 302.385C199.336 302.564 198.892 302.654 198.389 302.654ZM205.712 302.654C205.106 302.654 204.569 302.509 204.099 302.218C203.638 301.92 203.276 301.514 203.011 301.002C202.755 300.482 202.627 299.893 202.627 299.236C202.627 298.579 202.755 297.994 203.011 297.482C203.276 296.97 203.643 296.569 204.112 296.279C204.59 295.981 205.136 295.831 205.75 295.831C206.254 295.831 206.693 295.934 207.069 296.138C207.444 296.335 207.743 296.612 207.965 296.97V293.284H209.245V302.5H208.093L207.965 301.489C207.828 301.694 207.658 301.886 207.453 302.065C207.248 302.235 207.001 302.376 206.71 302.487C206.429 302.598 206.096 302.654 205.712 302.654ZM205.942 301.54C206.343 301.54 206.693 301.446 206.992 301.258C207.291 301.062 207.525 300.793 207.696 300.452C207.867 300.111 207.952 299.705 207.952 299.236C207.952 298.775 207.867 298.374 207.696 298.033C207.525 297.691 207.286 297.427 206.979 297.239C206.681 297.043 206.335 296.945 205.942 296.945C205.558 296.945 205.213 297.043 204.906 297.239C204.598 297.427 204.359 297.691 204.189 298.033C204.018 298.374 203.933 298.775 203.933 299.236C203.933 299.697 204.018 300.102 204.189 300.452C204.359 300.793 204.598 301.062 204.906 301.258C205.213 301.446 205.558 301.54 205.942 301.54Z" fill="white"/>
</g>
<path d="M145.15 306.751C144.775 306.751 144.423 306.657 144.094 306.47C143.778 306.282 143.525 306.03 143.338 305.713C143.15 305.384 143.056 305.026 143.056 304.639C143.056 304.24 143.15 303.882 143.338 303.566C143.525 303.237 143.778 302.979 144.094 302.791C144.423 302.603 144.775 302.51 145.15 302.51C145.549 302.51 145.907 302.603 146.224 302.791C146.553 302.979 146.811 303.237 146.998 303.566C147.186 303.882 147.28 304.24 147.28 304.639C147.28 305.026 147.186 305.384 146.998 305.713C146.811 306.03 146.553 306.282 146.224 306.47C145.907 306.657 145.549 306.751 145.15 306.751ZM154.995 306.751C154.62 306.751 154.268 306.657 153.939 306.47C153.623 306.282 153.37 306.03 153.183 305.713C152.995 305.384 152.901 305.026 152.901 304.639C152.901 304.24 152.995 303.882 153.183 303.566C153.37 303.237 153.623 302.979 153.939 302.791C154.268 302.603 154.62 302.51 154.995 302.51C155.394 302.51 155.752 302.603 156.069 302.791C156.398 302.979 156.656 303.237 156.843 303.566C157.031 303.882 157.125 304.24 157.125 304.639C157.125 305.026 157.031 305.384 156.843 305.713C156.656 306.03 156.398 306.282 156.069 306.47C155.752 306.657 155.394 306.751 154.995 306.751ZM164.84 306.751C164.465 306.751 164.113 306.657 163.784 306.47C163.468 306.282 163.215 306.03 163.028 305.713C162.84 305.384 162.746 305.026 162.746 304.639C162.746 304.24 162.84 303.882 163.028 303.566C163.215 303.237 163.468 302.979 163.784 302.791C164.113 302.603 164.465 302.51 164.84 302.51C165.239 302.51 165.597 302.603 165.914 302.791C166.243 302.979 166.501 303.237 166.688 303.566C166.876 303.882 166.97 304.24 166.97 304.639C166.97 305.026 166.876 305.384 166.688 305.713C166.501 306.03 166.243 306.282 165.914 306.47C165.597 306.657 165.239 306.751 164.84 306.751ZM174.685 306.751C174.31 306.751 173.958 306.657 173.629 306.47C173.313 306.282 173.06 306.03 172.873 305.713C172.685 305.384 172.591 305.026 172.591 304.639C172.591 304.24 172.685 303.882 172.873 303.566C173.06 303.237 173.313 302.979 173.629 302.791C173.958 302.603 174.31 302.51 174.685 302.51C175.084 302.51 175.442 302.603 175.759 302.791C176.088 302.979 176.346 303.237 176.533 303.566C176.721 303.882 176.815 304.24 176.815 304.639C176.815 305.026 176.721 305.384 176.533 305.713C176.346 306.03 176.088 306.282 175.759 306.47C175.442 306.657 175.084 306.751 174.685 306.751ZM192.725 306.751C192.35 306.751 191.998 306.657 191.669 306.47C191.353 306.282 191.1 306.03 190.913 305.713C190.725 305.384 190.631 305.026 190.631 304.639C190.631 304.24 190.725 303.882 190.913 303.566C191.1 303.237 191.353 302.979 191.669 302.791C191.998 302.603 192.35 302.51 192.725 302.51C193.124 302.51 193.482 302.603 193.799 302.791C194.128 302.979 194.386 303.237 194.573 303.566C194.761 303.882 194.855 304.24 194.855 304.639C194.855 305.026 194.761 305.384 194.573 305.713C194.386 306.03 194.128 306.282 193.799 306.47C193.482 306.657 193.124 306.751 192.725 306.751ZM202.57 306.751C202.195 306.751 201.843 306.657 201.514 306.47C201.198 306.282 200.945 306.03 200.758 305.713C200.57 305.384 200.476 305.026 200.476 304.639C200.476 304.24 200.57 303.882 200.758 303.566C200.945 303.237 201.198 302.979 201.514 302.791C201.843 302.603 202.195 302.51 202.57 302.51C202.969 302.51 203.327 302.603 203.644 302.791C203.973 302.979 204.231 303.237 204.418 303.566C204.606 303.882 204.7 304.24 204.7 304.639C204.7 305.026 204.606 305.384 204.418 305.713C204.231 306.03 203.973 306.282 203.644 306.47C203.327 306.657 202.969 306.751 202.57 306.751ZM212.415 306.751C212.04 306.751 211.688 306.657 211.359 306.47C211.043 306.282 210.79 306.03 210.603 305.713C210.415 305.384 210.321 305.026 210.321 304.639C210.321 304.24 210.415 303.882 210.603 303.566C210.79 303.237 211.043 302.979 211.359 302.791C211.688 302.603 212.04 302.51 212.415 302.51C212.814 302.51 213.172 302.603 213.489 302.791C213.818 302.979 214.076 303.237 214.263 303.566C214.451 303.882 214.545 304.24 214.545 304.639C214.545 305.026 214.451 305.384 214.263 305.713C214.076 306.03 213.818 306.282 213.489 306.47C213.172 306.657 212.814 306.751 212.415 306.751ZM222.26 306.751C221.885 306.751 221.533 306.657 221.204 306.47C220.888 306.282 220.635 306.03 220.448 305.713C220.26 305.384 220.166 305.026 220.166 304.639C220.166 304.24 220.26 303.882 220.448 303.566C220.635 303.237 220.888 302.979 221.204 302.791C221.533 302.603 221.885 302.51 222.26 302.51C222.659 302.51 223.017 302.603 223.334 302.791C223.663 302.979 223.921 303.237 224.108 303.566C224.296 303.882 224.39 304.24 224.39 304.639C224.39 305.026 224.296 305.384 224.108 305.713C223.921 306.03 223.663 306.282 223.334 306.47C223.017 306.657 222.659 306.751 222.26 306.751ZM240.3 306.751C239.925 306.751 239.573 306.657 239.244 306.47C238.928 306.282 238.675 306.03 238.488 305.713C238.3 305.384 238.206 305.026 238.206 304.639C238.206 304.24 238.3 303.882 238.488 303.566C238.675 303.237 238.928 302.979 239.244 302.791C239.573 302.603 239.925 302.51 240.3 302.51C240.699 302.51 241.057 302.603 241.374 302.791C241.703 302.979 241.961 303.237 242.148 303.566C242.336 303.882 242.43 304.24 242.43 304.639C242.43 305.026 242.336 305.384 242.148 305.713C241.961 306.03 241.703 306.282 241.374 306.47C241.057 306.657 240.699 306.751 240.3 306.751ZM250.145 306.751C249.77 306.751 249.418 306.657 249.089 306.47C248.773 306.282 248.52 306.03 248.333 305.713C248.145 305.384 248.051 305.026 248.051 304.639C248.051 304.24 248.145 303.882 248.333 303.566C248.52 303.237 248.773 302.979 249.089 302.791C249.418 302.603 249.77 302.51 250.145 302.51C250.544 302.51 250.902 302.603 251.219 302.791C251.548 302.979 251.806 303.237 251.993 303.566C252.181 303.882 252.275 304.24 252.275 304.639C252.275 305.026 252.181 305.384 251.993 305.713C251.806 306.03 251.548 306.282 251.219 306.47C250.902 306.657 250.544 306.751 250.145 306.751ZM259.99 306.751C259.615 306.751 259.263 306.657 258.934 306.47C258.618 306.282 258.365 306.03 258.178 305.713C257.99 305.384 257.896 305.026 257.896 304.639C257.896 304.24 257.99 303.882 258.178 303.566C258.365 303.237 258.618 302.979 258.934 302.791C259.263 302.603 259.615 302.51 259.99 302.51C260.389 302.51 260.747 302.603 261.064 302.791C261.393 302.979 261.651 303.237 261.838 303.566C262.026 303.882 262.12 304.24 262.12 304.639C262.12 305.026 262.026 305.384 261.838 305.713C261.651 306.03 261.393 306.282 261.064 306.47C260.747 306.657 260.389 306.751 259.99 306.751ZM269.835 306.751C269.46 306.751 269.108 306.657 268.779 306.47C268.463 306.282 268.21 306.03 268.023 305.713C267.835 305.384 267.741 305.026 267.741 304.639C267.741 304.24 267.835 303.882 268.023 303.566C268.21 303.237 268.463 302.979 268.779 302.791C269.108 302.603 269.46 302.51 269.835 302.51C270.234 302.51 270.592 302.603 270.909 302.791C271.238 302.979 271.496 303.237 271.683 303.566C271.871 303.882 271.965 304.24 271.965 304.639C271.965 305.026 271.871 305.384 271.683 305.713C271.496 306.03 271.238 306.282 270.909 306.47C270.592 306.657 270.234 306.751 269.835 306.751ZM290.075 310.711C289.301 310.711 288.638 310.559 288.087 310.254C287.535 309.949 287.095 309.544 286.767 309.039C286.45 308.523 286.256 307.96 286.186 307.35H287.559C287.676 308.018 287.958 308.535 288.403 308.898C288.849 309.25 289.412 309.426 290.093 309.426C290.715 309.426 291.266 309.239 291.747 308.863C292.228 308.488 292.616 307.913 292.909 307.138C293.214 306.364 293.384 305.384 293.419 304.199C293.419 304.164 293.419 304.135 293.419 304.111C293.419 304.076 293.419 304.047 293.419 304.023C293.243 304.387 292.985 304.727 292.645 305.044C292.305 305.349 291.9 305.595 291.431 305.783C290.973 305.971 290.451 306.065 289.864 306.065C289.172 306.065 288.515 305.901 287.893 305.572C287.283 305.243 286.784 304.786 286.397 304.199C286.022 303.601 285.834 302.903 285.834 302.105C285.834 301.413 285.998 300.75 286.327 300.116C286.667 299.482 287.154 298.966 287.787 298.567C288.433 298.168 289.19 297.969 290.058 297.969C290.95 297.969 291.7 298.139 292.311 298.479C292.921 298.808 293.408 299.254 293.771 299.817C294.147 300.38 294.417 301.014 294.581 301.718C294.745 302.41 294.827 303.12 294.827 303.847C294.827 305.197 294.64 306.387 294.264 307.42C293.9 308.453 293.361 309.262 292.645 309.849C291.941 310.424 291.084 310.711 290.075 310.711ZM290.163 304.78C290.715 304.78 291.208 304.657 291.642 304.41C292.076 304.152 292.416 303.812 292.663 303.39C292.921 302.967 293.05 302.51 293.05 302.017C293.05 301.489 292.921 301.019 292.663 300.609C292.416 300.186 292.076 299.858 291.642 299.623C291.208 299.389 290.715 299.271 290.163 299.271C289.624 299.271 289.137 299.394 288.703 299.641C288.268 299.875 287.928 300.198 287.682 300.609C287.447 301.019 287.33 301.495 287.33 302.034C287.33 302.586 287.447 303.067 287.682 303.478C287.928 303.888 288.268 304.211 288.703 304.446C289.137 304.669 289.624 304.78 290.163 304.78ZM302.901 310.5V299.394H299.223V298.18H308.058V299.394H304.379V310.5H302.901ZM321.267 310.5V298.18H322.746V310.5H321.267ZM313.4 310.5V298.18H314.879V310.5H313.4ZM314.597 304.833V303.618H321.637V304.833H314.597ZM328.883 310.5V298.18H332.931C333.893 298.18 334.685 298.338 335.307 298.655C335.929 298.972 336.386 299.406 336.68 299.958C336.985 300.497 337.137 301.107 337.137 301.788C337.137 302.457 336.99 303.067 336.697 303.618C336.404 304.158 335.946 304.592 335.324 304.921C334.702 305.238 333.905 305.396 332.931 305.396H330.361V310.5H328.883ZM330.361 304.146H332.896C333.881 304.146 334.579 303.935 334.99 303.513C335.412 303.079 335.624 302.504 335.624 301.788C335.624 301.037 335.412 300.456 334.99 300.046C334.579 299.623 333.881 299.412 332.896 299.412H330.361V304.146Z" fill="white" fill-opacity="0.5"/>
<g filter="url(#filter3_d_3641_1135)">
<mask id="path-16-inside-4_3641_1135" fill="white">
<path d="M327.91 332.5C327.91 325.873 333.283 320.5 339.91 320.5H469.91C476.538 320.5 481.91 325.873 481.91 332.5V351.5C481.91 358.127 476.538 363.5 469.91 363.5H339.91C333.283 363.5 327.91 358.127 327.91 351.5V332.5Z"/>
</mask>
<path d="M327.91 332.5C327.91 325.873 333.283 320.5 339.91 320.5H469.91C476.538 320.5 481.91 325.873 481.91 332.5V351.5C481.91 358.127 476.538 363.5 469.91 363.5H339.91C333.283 363.5 327.91 358.127 327.91 351.5V332.5Z" fill="#1E1E1E" shape-rendering="crispEdges"/>
<path d="M339.91 320.5V321.5H469.91V320.5V319.5H339.91V320.5ZM481.91 332.5H480.91V351.5H481.91H482.91V332.5H481.91ZM469.91 363.5V362.5H339.91V363.5V364.5H469.91V363.5ZM327.91 351.5H328.91V332.5H327.91H326.91V351.5H327.91ZM339.91 363.5V362.5C333.835 362.5 328.91 357.575 328.91 351.5H327.91H326.91C326.91 358.68 332.73 364.5 339.91 364.5V363.5ZM481.91 351.5H480.91C480.91 357.575 475.985 362.5 469.91 362.5V363.5V364.5C477.09 364.5 482.91 358.68 482.91 351.5H481.91ZM469.91 320.5V321.5C475.985 321.5 480.91 326.425 480.91 332.5H481.91H482.91C482.91 325.32 477.09 319.5 469.91 319.5V320.5ZM339.91 320.5V319.5C332.73 319.5 326.91 325.32 326.91 332.5H327.91H328.91C328.91 326.425 333.835 321.5 339.91 321.5V320.5Z" fill="white" fill-opacity="0.1" mask="url(#path-16-inside-4_3641_1135)"/>
<path d="M346.91 348.396H359.71V335.596H346.91V348.396Z" fill="white"/>
<path d="M370.857 346.5V337.54H373.904C374.621 337.54 375.209 337.659 375.67 337.898C376.131 338.137 376.472 338.462 376.694 338.871C376.925 339.272 377.04 339.729 377.04 340.241C377.04 340.736 376.929 341.188 376.707 341.598C376.485 342.007 376.144 342.336 375.683 342.583C375.222 342.822 374.629 342.942 373.904 342.942H372.137V346.5H370.857ZM372.137 341.879H373.853C374.527 341.879 375.005 341.73 375.286 341.431C375.576 341.133 375.721 340.736 375.721 340.241C375.721 339.72 375.576 339.319 375.286 339.038C375.005 338.747 374.527 338.602 373.853 338.602H372.137V341.879ZM382.336 346.654C381.457 346.654 380.702 346.462 380.071 346.078C379.439 345.685 378.949 345.143 378.599 344.452C378.257 343.752 378.087 342.942 378.087 342.02C378.087 341.107 378.257 340.301 378.599 339.601C378.949 338.901 379.439 338.359 380.071 337.975C380.702 337.583 381.457 337.386 382.336 337.386C383.377 337.386 384.222 337.638 384.871 338.142C385.528 338.645 385.946 339.353 386.125 340.266H384.717C384.589 339.737 384.325 339.315 383.924 338.999C383.531 338.683 382.998 338.526 382.324 338.526C381.726 338.526 381.206 338.666 380.762 338.948C380.327 339.23 379.99 339.631 379.751 340.151C379.52 340.672 379.405 341.295 379.405 342.02C379.405 342.745 379.52 343.373 379.751 343.902C379.99 344.422 380.327 344.823 380.762 345.105C381.206 345.378 381.726 345.514 382.324 345.514C382.998 345.514 383.531 345.365 383.924 345.066C384.325 344.759 384.589 344.345 384.717 343.825H386.125C385.946 344.712 385.528 345.408 384.871 345.911C384.222 346.406 383.377 346.654 382.336 346.654ZM387.67 346.5V337.54H388.95V346.5H387.67ZM390.832 343.21V342.135H396.004V343.21H390.832ZM397.882 346.5V337.54H400.558C401.599 337.54 402.456 337.723 403.13 338.09C403.813 338.457 404.316 338.978 404.641 339.652C404.974 340.318 405.14 341.111 405.14 342.033C405.14 342.954 404.974 343.748 404.641 344.414C404.316 345.079 403.813 345.595 403.13 345.962C402.456 346.321 401.594 346.5 400.545 346.5H397.882ZM399.162 345.425H400.506C401.326 345.425 401.978 345.288 402.465 345.015C402.951 344.742 403.297 344.354 403.502 343.85C403.715 343.338 403.822 342.733 403.822 342.033C403.822 341.325 403.715 340.714 403.502 340.202C403.297 339.69 402.951 339.298 402.465 339.025C401.978 338.752 401.326 338.615 400.506 338.615H399.162V345.425ZM409.639 346.654C408.981 346.654 408.405 346.538 407.911 346.308C407.416 346.069 407.032 345.736 406.759 345.31C406.485 344.883 406.349 344.384 406.349 343.812H407.693C407.693 344.136 407.77 344.435 407.923 344.708C408.077 344.973 408.295 345.186 408.576 345.348C408.866 345.502 409.216 345.578 409.626 345.578C409.993 345.578 410.304 345.519 410.56 345.399C410.816 345.28 411.012 345.118 411.149 344.913C411.294 344.699 411.367 344.456 411.367 344.183C411.367 343.876 411.294 343.62 411.149 343.415C411.012 343.21 410.82 343.044 410.573 342.916C410.334 342.779 410.057 342.66 409.741 342.558C409.425 342.455 409.092 342.344 408.743 342.225C408.017 341.986 407.48 341.683 407.13 341.316C406.788 340.949 406.618 340.471 406.618 339.882C406.618 339.379 406.737 338.944 406.976 338.577C407.215 338.201 407.548 337.911 407.975 337.706C408.41 337.493 408.922 337.386 409.511 337.386C410.091 337.386 410.599 337.493 411.034 337.706C411.469 337.92 411.81 338.214 412.058 338.59C412.305 338.965 412.429 339.405 412.429 339.908H411.072C411.072 339.678 411.012 339.451 410.893 339.23C410.773 339.008 410.594 338.829 410.355 338.692C410.116 338.547 409.822 338.474 409.472 338.474C409.182 338.466 408.922 338.513 408.691 338.615C408.461 338.718 408.277 338.867 408.141 339.063C408.013 339.259 407.949 339.494 407.949 339.767C407.949 340.04 408.009 340.262 408.128 340.433C408.248 340.595 408.418 340.736 408.64 340.855C408.862 340.975 409.118 341.086 409.408 341.188C409.707 341.282 410.035 341.389 410.394 341.508C410.837 341.653 411.23 341.832 411.571 342.046C411.921 342.25 412.194 342.519 412.391 342.852C412.595 343.176 412.698 343.594 412.698 344.106C412.698 344.55 412.583 344.964 412.352 345.348C412.122 345.732 411.78 346.048 411.328 346.295C410.876 346.534 410.313 346.654 409.639 346.654ZM417.176 346.654C416.519 346.654 415.943 346.538 415.448 346.308C414.953 346.069 414.569 345.736 414.296 345.31C414.023 344.883 413.886 344.384 413.886 343.812H415.23C415.23 344.136 415.307 344.435 415.461 344.708C415.614 344.973 415.832 345.186 416.114 345.348C416.404 345.502 416.754 345.578 417.163 345.578C417.53 345.578 417.842 345.519 418.098 345.399C418.354 345.28 418.55 345.118 418.686 344.913C418.832 344.699 418.904 344.456 418.904 344.183C418.904 343.876 418.832 343.62 418.686 343.415C418.55 343.21 418.358 343.044 418.11 342.916C417.872 342.779 417.594 342.66 417.278 342.558C416.963 342.455 416.63 342.344 416.28 342.225C415.555 341.986 415.017 341.683 414.667 341.316C414.326 340.949 414.155 340.471 414.155 339.882C414.155 339.379 414.275 338.944 414.514 338.577C414.753 338.201 415.085 337.911 415.512 337.706C415.947 337.493 416.459 337.386 417.048 337.386C417.628 337.386 418.136 337.493 418.571 337.706C419.006 337.92 419.348 338.214 419.595 338.59C419.843 338.965 419.966 339.405 419.966 339.908H418.61C418.61 339.678 418.55 339.451 418.43 339.23C418.311 339.008 418.132 338.829 417.893 338.692C417.654 338.547 417.36 338.474 417.01 338.474C416.72 338.466 416.459 338.513 416.229 338.615C415.998 338.718 415.815 338.867 415.678 339.063C415.55 339.259 415.486 339.494 415.486 339.767C415.486 340.04 415.546 340.262 415.666 340.433C415.785 340.595 415.956 340.736 416.178 340.855C416.4 340.975 416.656 341.086 416.946 341.188C417.244 341.282 417.573 341.389 417.931 341.508C418.375 341.653 418.768 341.832 419.109 342.046C419.459 342.25 419.732 342.519 419.928 342.852C420.133 343.176 420.235 343.594 420.235 344.106C420.235 344.55 420.12 344.964 419.89 345.348C419.659 345.732 419.318 346.048 418.866 346.295C418.413 346.534 417.85 346.654 417.176 346.654ZM425.07 346.5V337.54H426.35V345.489H430.446V346.5H425.07ZM434.511 346.654C433.897 346.654 433.351 346.513 432.873 346.231C432.395 345.95 432.02 345.553 431.747 345.041C431.482 344.529 431.35 343.936 431.35 343.262C431.35 342.579 431.482 341.982 431.747 341.47C432.02 340.949 432.395 340.548 432.873 340.266C433.351 339.976 433.901 339.831 434.524 339.831C435.164 339.831 435.71 339.972 436.163 340.254C436.615 340.535 436.961 340.915 437.199 341.393C437.438 341.862 437.558 342.383 437.558 342.954C437.558 343.04 437.558 343.129 437.558 343.223C437.558 343.317 437.554 343.424 437.545 343.543H432.297V342.634H436.291C436.265 342.088 436.086 341.662 435.753 341.354C435.42 341.047 435.006 340.894 434.511 340.894C434.17 340.894 433.854 340.975 433.564 341.137C433.274 341.29 433.039 341.525 432.86 341.841C432.69 342.148 432.604 342.532 432.604 342.993V343.364C432.604 343.842 432.69 344.247 432.86 344.58C433.039 344.913 433.27 345.165 433.551 345.335C433.842 345.506 434.162 345.591 434.511 345.591C434.93 345.591 435.267 345.506 435.523 345.335C435.787 345.156 435.979 344.913 436.099 344.606H437.379C437.268 344.998 437.08 345.348 436.815 345.655C436.559 345.962 436.235 346.206 435.843 346.385C435.459 346.564 435.015 346.654 434.511 346.654ZM440.599 346.5L438.154 339.985H439.498L441.354 345.271L443.223 339.985H444.541L442.109 346.5H440.599ZM448.299 346.654C447.685 346.654 447.138 346.513 446.661 346.231C446.183 345.95 445.807 345.553 445.534 345.041C445.27 344.529 445.137 343.936 445.137 343.262C445.137 342.579 445.27 341.982 445.534 341.47C445.807 340.949 446.183 340.548 446.661 340.266C447.138 339.976 447.689 339.831 448.312 339.831C448.952 339.831 449.498 339.972 449.95 340.254C450.402 340.535 450.748 340.915 450.987 341.393C451.226 341.862 451.345 342.383 451.345 342.954C451.345 343.04 451.345 343.129 451.345 343.223C451.345 343.317 451.341 343.424 451.333 343.543H446.085V342.634H450.078C450.053 342.088 449.873 341.662 449.541 341.354C449.208 341.047 448.794 340.894 448.299 340.894C447.958 340.894 447.642 340.975 447.352 341.137C447.062 341.29 446.827 341.525 446.648 341.841C446.477 342.148 446.392 342.532 446.392 342.993V343.364C446.392 343.842 446.477 344.247 446.648 344.58C446.827 344.913 447.057 345.165 447.339 345.335C447.629 345.506 447.949 345.591 448.299 345.591C448.717 345.591 449.054 345.506 449.31 345.335C449.575 345.156 449.767 344.913 449.886 344.606H451.166C451.055 344.998 450.867 345.348 450.603 345.655C450.347 345.962 450.023 346.206 449.63 346.385C449.246 346.564 448.802 346.654 448.299 346.654ZM452.793 346.5V337.284H454.073V346.5H452.793ZM460.296 346.5V338.986L458.67 339.434V338.462L460.769 337.54H461.601V346.5H460.296Z" fill="white"/>
</g>
<path d="M145.12 346.625C144.586 346.625 144.122 346.528 143.726 346.334C143.331 346.139 143.026 345.869 142.811 345.522C142.596 345.176 142.489 344.774 142.489 344.316H143.404C143.404 344.6 143.47 344.864 143.602 345.106C143.733 345.342 143.924 345.533 144.174 345.678C144.43 345.817 144.746 345.886 145.12 345.886C145.446 345.886 145.723 345.834 145.952 345.73C146.188 345.619 146.365 345.47 146.482 345.283C146.607 345.096 146.67 344.885 146.67 344.649C146.67 344.378 146.611 344.157 146.493 343.983C146.382 343.803 146.222 343.657 146.014 343.546C145.813 343.429 145.578 343.328 145.307 343.245C145.044 343.155 144.759 343.061 144.454 342.964C143.858 342.77 143.421 342.527 143.144 342.236C142.874 341.938 142.738 341.557 142.738 341.092C142.738 340.697 142.829 340.35 143.009 340.052C143.196 339.754 143.459 339.522 143.799 339.355C144.146 339.182 144.555 339.095 145.026 339.095C145.491 339.095 145.893 339.182 146.233 339.355C146.579 339.529 146.85 339.768 147.044 340.073C147.238 340.371 147.335 340.718 147.335 341.113H146.42C146.42 340.912 146.368 340.714 146.264 340.52C146.16 340.326 146.001 340.166 145.786 340.042C145.578 339.91 145.314 339.844 144.995 339.844C144.732 339.837 144.496 339.882 144.288 339.979C144.087 340.069 143.927 340.201 143.81 340.374C143.699 340.548 143.643 340.759 143.643 341.009C143.643 341.245 143.692 341.435 143.789 341.581C143.893 341.726 144.038 341.851 144.226 341.955C144.42 342.052 144.645 342.142 144.902 342.226C145.158 342.309 145.442 342.402 145.754 342.506C146.108 342.624 146.42 342.77 146.69 342.943C146.968 343.11 147.183 343.325 147.335 343.588C147.495 343.851 147.574 344.188 147.574 344.597C147.574 344.943 147.481 345.273 147.294 345.585C147.113 345.89 146.843 346.139 146.482 346.334C146.122 346.528 145.668 346.625 145.12 346.625ZM149.904 346.5V339.22H154.407V339.938H150.777V342.475H154.095V343.182H150.777V345.782H154.407V346.5H149.904ZM158.56 346.5V339.938H156.387V339.22H161.608V339.938H159.434V346.5H158.56ZM165.461 346.5V339.938H163.287V339.22H168.508V339.938H166.334V346.5H165.461ZM170.655 346.5V339.22H171.529V345.803H174.919V346.5H170.655ZM177.21 346.5V339.22H181.713V339.938H178.084V342.475H181.401V343.182H178.084V345.782H181.713V346.5H177.21ZM184.161 346.5V339.22H185.18L187.686 344.337L190.172 339.22H191.202V346.5H190.328V340.79L188.009 345.522H187.354L185.034 340.822V346.5H184.161ZM193.834 346.5V339.22H198.337V339.938H194.707V342.475H198.025V343.182H194.707V345.782H198.337V346.5H193.834ZM200.785 346.5V339.22H201.658L205.537 345.065V339.22H206.411V346.5H205.537L201.658 340.655V346.5H200.785ZM210.751 346.5V339.938H208.578V339.22H213.799V339.938H211.625V346.5H210.751Z" fill="#888888"/>
<path d="M142.993 363.5V353.98H144.353V363.5H142.993ZM146.285 363.5V356.632H147.496L147.577 357.788C147.795 357.38 148.103 357.058 148.502 356.822C148.901 356.587 149.359 356.469 149.876 356.469C150.42 356.469 150.887 356.578 151.276 356.795C151.666 357.004 151.966 357.33 152.174 357.774C152.392 358.21 152.5 358.754 152.5 359.406V363.5H151.154V359.542C151.154 358.917 151.014 358.441 150.732 358.114C150.451 357.788 150.043 357.625 149.508 357.625C149.155 357.625 148.838 357.711 148.556 357.883C148.275 358.046 148.053 358.291 147.89 358.618C147.727 358.935 147.645 359.329 147.645 359.801V363.5H146.285ZM156.906 363.663C156.316 363.663 155.804 363.568 155.369 363.378C154.934 363.187 154.589 362.92 154.335 362.575C154.091 362.222 153.941 361.818 153.887 361.365H155.274C155.319 361.582 155.405 361.782 155.532 361.963C155.668 362.145 155.849 362.29 156.076 362.398C156.312 362.507 156.593 362.562 156.919 362.562C157.209 362.562 157.45 362.521 157.64 362.439C157.84 362.349 157.985 362.231 158.075 362.086C158.175 361.931 158.225 361.768 158.225 361.596C158.225 361.342 158.161 361.147 158.035 361.011C157.908 360.875 157.722 360.771 157.477 360.698C157.241 360.617 156.956 360.544 156.62 360.481C156.303 360.426 155.995 360.354 155.695 360.263C155.396 360.163 155.129 360.041 154.893 359.896C154.666 359.742 154.485 359.556 154.349 359.338C154.222 359.112 154.159 358.835 154.159 358.509C154.159 358.119 154.258 357.77 154.458 357.462C154.666 357.144 154.965 356.899 155.355 356.727C155.745 356.555 156.203 356.469 156.729 356.469C157.5 356.469 158.116 356.65 158.579 357.013C159.041 357.366 159.313 357.874 159.395 358.536H158.075C158.03 358.228 157.889 357.992 157.654 357.829C157.427 357.657 157.114 357.57 156.715 357.57C156.325 357.57 156.026 357.647 155.818 357.802C155.609 357.956 155.505 358.16 155.505 358.414C155.505 358.577 155.559 358.726 155.668 358.862C155.786 358.989 155.963 359.098 156.199 359.189C156.434 359.279 156.724 359.357 157.069 359.42C157.549 359.511 157.98 359.624 158.361 359.76C158.742 359.896 159.045 360.095 159.272 360.358C159.499 360.621 159.608 361.002 159.599 361.501C159.608 361.927 159.499 362.303 159.272 362.63C159.055 362.956 158.742 363.21 158.334 363.391C157.935 363.573 157.459 363.663 156.906 363.663ZM163.763 363.5C163.337 363.5 162.965 363.432 162.648 363.296C162.33 363.16 162.086 362.933 161.913 362.616C161.741 362.299 161.655 361.868 161.655 361.324V357.774H160.458V356.632H161.655L161.818 354.891H163.015V356.632H164.946V357.774H163.015V361.338C163.015 361.727 163.092 361.995 163.246 362.14C163.409 362.276 163.695 362.344 164.103 362.344H164.892V363.5H163.763ZM168.73 363.663C168.168 363.663 167.701 363.568 167.33 363.378C166.967 363.187 166.695 362.933 166.514 362.616C166.332 362.29 166.242 361.936 166.242 361.555C166.242 361.102 166.355 360.717 166.582 360.399C166.817 360.082 167.153 359.837 167.588 359.665C168.023 359.493 168.549 359.406 169.166 359.406H170.934C170.934 358.998 170.875 358.663 170.757 358.4C170.648 358.128 170.476 357.929 170.24 357.802C170.004 357.666 169.71 357.598 169.356 357.598C168.957 357.598 168.608 357.697 168.309 357.897C168.019 358.087 167.842 358.373 167.778 358.754H166.418C166.473 358.264 166.636 357.851 166.908 357.516C167.18 357.181 167.534 356.922 167.969 356.741C168.404 356.559 168.866 356.469 169.356 356.469C170 356.469 170.539 356.582 170.974 356.809C171.41 357.035 171.736 357.353 171.954 357.761C172.18 358.169 172.294 358.658 172.294 359.23V363.5H171.11L171.002 362.344C170.902 362.525 170.779 362.698 170.634 362.861C170.498 363.024 170.34 363.165 170.158 363.282C169.977 363.4 169.764 363.491 169.519 363.554C169.283 363.627 169.021 363.663 168.73 363.663ZM168.989 362.562C169.279 362.562 169.542 362.503 169.778 362.385C170.013 362.267 170.213 362.108 170.376 361.909C170.548 361.7 170.675 361.469 170.757 361.215C170.847 360.952 170.897 360.68 170.906 360.399V360.358H169.288C168.907 360.358 168.594 360.408 168.35 360.508C168.105 360.599 167.928 360.73 167.819 360.902C167.719 361.066 167.67 361.256 167.67 361.474C167.67 361.691 167.719 361.882 167.819 362.045C167.919 362.208 168.069 362.335 168.268 362.426C168.467 362.516 168.708 362.562 168.989 362.562ZM174.056 363.5V356.632H175.267L175.348 357.788C175.566 357.38 175.874 357.058 176.273 356.822C176.672 356.587 177.13 356.469 177.647 356.469C178.191 356.469 178.658 356.578 179.048 356.795C179.437 357.004 179.737 357.33 179.945 357.774C180.163 358.21 180.272 358.754 180.272 359.406V363.5H178.925V359.542C178.925 358.917 178.785 358.441 178.504 358.114C178.223 357.788 177.815 357.625 177.28 357.625C176.926 357.625 176.609 357.711 176.328 357.883C176.047 358.046 175.824 358.291 175.661 358.618C175.498 358.935 175.416 359.329 175.416 359.801V363.5H174.056ZM184.854 363.5C184.427 363.5 184.056 363.432 183.738 363.296C183.421 363.16 183.176 362.933 183.004 362.616C182.832 362.299 182.746 361.868 182.746 361.324V357.774H181.549V356.632H182.746L182.909 354.891H184.106V356.632H186.037V357.774H184.106V361.338C184.106 361.727 184.183 361.995 184.337 362.14C184.5 362.276 184.786 362.344 185.194 362.344H185.982V363.5H184.854Z" fill="white"/>
<path d="M245.89 346.625C245.391 346.625 244.937 346.524 244.528 346.323C244.126 346.122 243.803 345.817 243.561 345.408C243.318 344.992 243.197 344.462 243.197 343.817V339.22H244.07V343.827C244.07 344.299 244.147 344.683 244.299 344.982C244.459 345.28 244.677 345.498 244.954 345.637C245.232 345.775 245.551 345.845 245.911 345.845C246.279 345.845 246.598 345.775 246.868 345.637C247.138 345.498 247.35 345.28 247.502 344.982C247.655 344.683 247.731 344.299 247.731 343.827V339.22H248.605V343.817C248.605 344.462 248.483 344.992 248.241 345.408C247.998 345.817 247.672 346.122 247.263 346.323C246.854 346.524 246.397 346.625 245.89 346.625ZM251.135 346.5V339.22H253.485C254.068 339.22 254.546 339.317 254.921 339.511C255.295 339.705 255.569 339.965 255.742 340.291C255.923 340.617 256.013 340.988 256.013 341.404C256.013 341.806 255.923 342.174 255.742 342.506C255.569 342.832 255.295 343.092 254.921 343.286C254.553 343.481 254.075 343.578 253.485 343.578H252.009V346.5H251.135ZM252.009 342.839H253.475C254.078 342.839 254.501 342.707 254.744 342.444C254.993 342.181 255.118 341.834 255.118 341.404C255.118 340.946 254.993 340.589 254.744 340.333C254.501 340.076 254.078 339.948 253.475 339.948H252.009V342.839ZM259.944 346.5V339.938H257.77V339.22H262.991V339.938H260.818V346.5H259.944ZM265.139 346.5V339.22H266.012V346.5H265.139ZM268.646 346.5V339.22H269.666L272.172 344.337L274.658 339.22H275.687V346.5H274.814V340.79L272.494 345.522H271.839L269.52 340.822V346.5H268.646ZM278.319 346.5V339.22H282.823V339.938H279.193V342.475H282.511V343.182H279.193V345.782H282.823V346.5H278.319Z" fill="#888888"/>
<path d="M246.634 363.663C246.018 363.663 245.487 363.545 245.043 363.31C244.608 363.065 244.263 362.743 244.01 362.344C243.765 361.936 243.615 361.501 243.561 361.038H244.826C244.916 361.51 245.12 361.873 245.438 362.126C245.755 362.38 246.158 362.507 246.648 362.507C247.101 362.507 247.5 362.371 247.845 362.099C248.189 361.827 248.466 361.415 248.674 360.862C248.883 360.309 249.001 359.61 249.028 358.767C249.028 358.74 249.028 358.713 249.028 358.686C249.028 358.658 249.028 358.631 249.028 358.604C248.892 358.876 248.697 359.125 248.443 359.352C248.189 359.579 247.89 359.76 247.546 359.896C247.201 360.023 246.825 360.086 246.417 360.086C245.882 360.086 245.379 359.964 244.907 359.719C244.445 359.465 244.069 359.107 243.778 358.645C243.488 358.182 243.343 357.643 243.343 357.026C243.343 356.473 243.475 355.952 243.738 355.462C244.01 354.973 244.39 354.578 244.88 354.279C245.37 353.971 245.945 353.817 246.607 353.817C247.305 353.817 247.89 353.948 248.362 354.211C248.842 354.465 249.227 354.81 249.518 355.245C249.808 355.68 250.016 356.17 250.143 356.714C250.27 357.258 250.334 357.815 250.334 358.386C250.334 359.429 250.189 360.349 249.898 361.147C249.608 361.936 249.187 362.553 248.634 362.997C248.09 363.441 247.423 363.663 246.634 363.663ZM246.702 358.93C247.092 358.93 247.441 358.844 247.75 358.672C248.058 358.491 248.303 358.25 248.484 357.951C248.665 357.652 248.756 357.321 248.756 356.958C248.756 356.578 248.665 356.242 248.484 355.952C248.303 355.653 248.058 355.422 247.75 355.258C247.441 355.086 247.092 355 246.702 355C246.322 355 245.977 355.086 245.669 355.258C245.361 355.422 245.12 355.653 244.948 355.952C244.776 356.242 244.69 356.582 244.69 356.972C244.69 357.362 244.776 357.706 244.948 358.006C245.12 358.296 245.361 358.522 245.669 358.686C245.977 358.849 246.322 358.93 246.702 358.93ZM255.201 363.663C254.584 363.663 254.054 363.545 253.61 363.31C253.174 363.065 252.83 362.743 252.576 362.344C252.331 361.936 252.182 361.501 252.127 361.038H253.392C253.483 361.51 253.687 361.873 254.004 362.126C254.321 362.38 254.725 362.507 255.214 362.507C255.668 362.507 256.067 362.371 256.411 362.099C256.756 361.827 257.032 361.415 257.241 360.862C257.449 360.309 257.567 359.61 257.594 358.767C257.594 358.74 257.594 358.713 257.594 358.686C257.594 358.658 257.594 358.631 257.594 358.604C257.458 358.876 257.263 359.125 257.01 359.352C256.756 359.579 256.457 359.76 256.112 359.896C255.767 360.023 255.391 360.086 254.983 360.086C254.448 360.086 253.945 359.964 253.474 359.719C253.011 359.465 252.635 359.107 252.345 358.645C252.055 358.182 251.91 357.643 251.91 357.026C251.91 356.473 252.041 355.952 252.304 355.462C252.576 354.973 252.957 354.578 253.446 354.279C253.936 353.971 254.512 353.817 255.174 353.817C255.872 353.817 256.457 353.948 256.928 354.211C257.409 354.465 257.794 354.81 258.084 355.245C258.374 355.68 258.583 356.17 258.71 356.714C258.837 357.258 258.9 357.815 258.9 358.386C258.9 359.429 258.755 360.349 258.465 361.147C258.175 361.936 257.753 362.553 257.2 362.997C256.656 363.441 255.99 363.663 255.201 363.663ZM255.269 358.93C255.659 358.93 256.008 358.844 256.316 358.672C256.624 358.491 256.869 358.25 257.05 357.951C257.232 357.652 257.322 357.321 257.322 356.958C257.322 356.578 257.232 356.242 257.05 355.952C256.869 355.653 256.624 355.422 256.316 355.258C256.008 355.086 255.659 355 255.269 355C254.888 355 254.543 355.086 254.235 355.258C253.927 355.422 253.687 355.653 253.514 355.952C253.342 356.242 253.256 356.582 253.256 356.972C253.256 357.362 253.342 357.706 253.514 358.006C253.687 358.296 253.927 358.522 254.235 358.686C254.543 358.849 254.888 358.93 255.269 358.93ZM260.69 363.568C260.436 363.568 260.223 363.486 260.051 363.323C259.887 363.151 259.806 362.947 259.806 362.711C259.806 362.466 259.887 362.262 260.051 362.099C260.223 361.927 260.436 361.841 260.69 361.841C260.953 361.841 261.166 361.927 261.329 362.099C261.501 362.262 261.587 362.466 261.587 362.711C261.587 362.947 261.501 363.151 261.329 363.323C261.166 363.486 260.953 363.568 260.69 363.568ZM265.879 363.663C265.262 363.663 264.732 363.545 264.288 363.31C263.853 363.065 263.508 362.743 263.254 362.344C263.009 361.936 262.86 361.501 262.805 361.038H264.07C264.161 361.51 264.365 361.873 264.682 362.126C264.999 362.38 265.403 362.507 265.893 362.507C266.346 362.507 266.745 362.371 267.089 362.099C267.434 361.827 267.71 361.415 267.919 360.862C268.127 360.309 268.245 359.61 268.273 358.767C268.273 358.74 268.273 358.713 268.273 358.686C268.273 358.658 268.273 358.631 268.273 358.604C268.137 358.876 267.942 359.125 267.688 359.352C267.434 359.579 267.135 359.76 266.79 359.896C266.446 360.023 266.069 360.086 265.661 360.086C265.126 360.086 264.623 359.964 264.152 359.719C263.689 359.465 263.313 359.107 263.023 358.645C262.733 358.182 262.588 357.643 262.588 357.026C262.588 356.473 262.719 355.952 262.982 355.462C263.254 354.973 263.635 354.578 264.125 354.279C264.614 353.971 265.19 353.817 265.852 353.817C266.55 353.817 267.135 353.948 267.606 354.211C268.087 354.465 268.472 354.81 268.762 355.245C269.052 355.68 269.261 356.17 269.388 356.714C269.515 357.258 269.578 357.815 269.578 358.386C269.578 359.429 269.433 360.349 269.143 361.147C268.853 361.936 268.431 362.553 267.878 362.997C267.334 363.441 266.668 363.663 265.879 363.663ZM265.947 358.93C266.337 358.93 266.686 358.844 266.994 358.672C267.302 358.491 267.547 358.25 267.729 357.951C267.91 357.652 268.001 357.321 268.001 356.958C268.001 356.578 267.91 356.242 267.729 355.952C267.547 355.653 267.302 355.422 266.994 355.258C266.686 355.086 266.337 355 265.947 355C265.566 355 265.222 355.086 264.913 355.258C264.605 355.422 264.365 355.653 264.193 355.952C264.02 356.242 263.934 356.582 263.934 356.972C263.934 357.362 264.02 357.706 264.193 358.006C264.365 358.296 264.605 358.522 264.913 358.686C265.222 358.849 265.566 358.93 265.947 358.93ZM272.473 363.5L277.954 353.98H279.301L273.82 363.5H272.473ZM278.743 363.663C278.326 363.663 277.95 363.568 277.614 363.378C277.279 363.187 277.011 362.92 276.812 362.575C276.612 362.222 276.513 361.809 276.513 361.338C276.513 360.848 276.612 360.431 276.812 360.086C277.011 359.742 277.279 359.474 277.614 359.284C277.95 359.094 278.326 358.998 278.743 358.998C279.169 358.998 279.545 359.094 279.872 359.284C280.207 359.474 280.475 359.742 280.674 360.086C280.874 360.431 280.973 360.848 280.973 361.338C280.973 361.809 280.874 362.222 280.674 362.575C280.475 362.92 280.207 363.187 279.872 363.378C279.545 363.568 279.169 363.663 278.743 363.663ZM278.729 362.657C278.938 362.657 279.124 362.607 279.287 362.507C279.459 362.407 279.595 362.262 279.695 362.072C279.804 361.873 279.858 361.623 279.858 361.324C279.858 361.025 279.808 360.78 279.709 360.59C279.609 360.39 279.473 360.241 279.301 360.141C279.137 360.041 278.951 359.991 278.743 359.991C278.543 359.991 278.358 360.041 278.185 360.141C278.022 360.241 277.886 360.39 277.777 360.59C277.678 360.78 277.628 361.025 277.628 361.324C277.628 361.623 277.678 361.873 277.777 362.072C277.886 362.262 278.022 362.407 278.185 362.507C278.358 362.607 278.539 362.657 278.729 362.657ZM273.113 358.495C272.695 358.495 272.319 358.4 271.984 358.21C271.648 358.019 271.381 357.752 271.181 357.407C270.982 357.054 270.882 356.637 270.882 356.156C270.882 355.675 270.982 355.263 271.181 354.918C271.381 354.574 271.648 354.306 271.984 354.116C272.328 353.926 272.709 353.83 273.126 353.83C273.543 353.83 273.919 353.926 274.255 354.116C274.59 354.306 274.853 354.574 275.044 354.918C275.243 355.263 275.343 355.675 275.343 356.156C275.343 356.637 275.243 357.054 275.044 357.407C274.853 357.752 274.59 358.019 274.255 358.21C273.919 358.4 273.539 358.495 273.113 358.495ZM273.113 357.489C273.321 357.489 273.507 357.439 273.67 357.339C273.842 357.239 273.978 357.094 274.078 356.904C274.178 356.705 274.228 356.455 274.228 356.156C274.228 355.857 274.178 355.607 274.078 355.408C273.978 355.209 273.842 355.059 273.67 354.959C273.507 354.859 273.326 354.81 273.126 354.81C272.927 354.81 272.736 354.859 272.555 354.959C272.383 355.059 272.247 355.209 272.147 355.408C272.047 355.607 271.997 355.857 271.997 356.156C271.997 356.446 272.047 356.691 272.147 356.89C272.247 357.09 272.383 357.239 272.555 357.339C272.727 357.439 272.913 357.489 273.113 357.489Z" fill="white"/>
<path d="M311.79 346.5V339.22H312.664L316.543 345.065V339.22H317.417V346.5H316.543L312.664 340.655V346.5H311.79ZM320.051 346.5V339.22H324.555V339.938H320.925V342.475H324.243V343.182H320.925V345.782H324.555V346.5H320.051ZM328.708 346.5V339.938H326.534V339.22H331.755V339.938H329.582V346.5H328.708ZM335.4 346.5L333.403 339.22H334.339L335.91 345.46L337.688 339.22H338.666L340.403 345.481L341.994 339.22H342.93L340.891 346.5H339.893L338.156 340.478L336.378 346.5H335.4ZM347.884 346.625C347.211 346.625 346.619 346.469 346.106 346.157C345.592 345.838 345.19 345.398 344.899 344.836C344.615 344.267 344.473 343.609 344.473 342.86C344.473 342.118 344.615 341.466 344.899 340.905C345.19 340.336 345.592 339.893 346.106 339.574C346.619 339.255 347.211 339.095 347.884 339.095C348.57 339.095 349.17 339.255 349.683 339.574C350.196 339.893 350.591 340.336 350.869 340.905C351.153 341.466 351.295 342.118 351.295 342.86C351.295 343.609 351.153 344.267 350.869 344.836C350.591 345.398 350.196 345.838 349.683 346.157C349.17 346.469 348.57 346.625 347.884 346.625ZM347.884 345.855C348.39 345.855 348.83 345.737 349.205 345.502C349.586 345.259 349.881 344.916 350.089 344.472C350.297 344.021 350.401 343.484 350.401 342.86C350.401 342.236 350.297 341.702 350.089 341.258C349.881 340.808 349.586 340.465 349.205 340.229C348.83 339.993 348.39 339.875 347.884 339.875C347.385 339.875 346.944 339.993 346.563 340.229C346.189 340.465 345.894 340.808 345.679 341.258C345.471 341.702 345.367 342.236 345.367 342.86C345.367 343.484 345.471 344.021 345.679 344.472C345.894 344.916 346.189 345.259 346.563 345.502C346.944 345.737 347.385 345.855 347.884 345.855ZM353.634 346.5V339.22H355.985C356.553 339.22 357.018 339.317 357.378 339.511C357.739 339.698 358.006 339.951 358.179 340.27C358.352 340.589 358.439 340.95 358.439 341.352C358.439 341.74 358.349 342.097 358.169 342.423C357.995 342.749 357.725 343.009 357.357 343.203C356.99 343.397 356.518 343.494 355.943 343.494H354.508V346.5H353.634ZM357.482 346.5L355.881 343.245H356.858L358.512 346.5H357.482ZM354.508 342.808H355.922C356.477 342.808 356.882 342.673 357.139 342.402C357.402 342.132 357.534 341.785 357.534 341.362C357.534 340.933 357.406 340.593 357.149 340.343C356.9 340.087 356.487 339.958 355.912 339.958H354.508V342.808ZM360.88 346.5V339.22H361.753V342.517L364.79 339.22H365.892L363.188 342.122L365.934 346.5H364.873L362.564 342.798L361.753 343.661V346.5H360.88ZM370.363 346.625C369.829 346.625 369.365 346.528 368.97 346.334C368.574 346.139 368.269 345.869 368.054 345.522C367.84 345.176 367.732 344.774 367.732 344.316H368.647C368.647 344.6 368.713 344.864 368.845 345.106C368.977 345.342 369.167 345.533 369.417 345.678C369.673 345.817 369.989 345.886 370.363 345.886C370.689 345.886 370.966 345.834 371.195 345.73C371.431 345.619 371.608 345.47 371.726 345.283C371.85 345.096 371.913 344.885 371.913 344.649C371.913 344.378 371.854 344.157 371.736 343.983C371.625 343.803 371.466 343.657 371.258 343.546C371.057 343.429 370.821 343.328 370.55 343.245C370.287 343.155 370.003 343.061 369.698 342.964C369.101 342.77 368.665 342.527 368.387 342.236C368.117 341.938 367.982 341.557 367.982 341.092C367.982 340.697 368.072 340.35 368.252 340.052C368.439 339.754 368.703 339.522 369.042 339.355C369.389 339.182 369.798 339.095 370.27 339.095C370.734 339.095 371.136 339.182 371.476 339.355C371.823 339.529 372.093 339.768 372.287 340.073C372.481 340.371 372.578 340.718 372.578 341.113H371.663C371.663 340.912 371.611 340.714 371.507 340.52C371.403 340.326 371.244 340.166 371.029 340.042C370.821 339.91 370.557 339.844 370.238 339.844C369.975 339.837 369.739 339.882 369.531 339.979C369.33 340.069 369.171 340.201 369.053 340.374C368.942 340.548 368.886 340.759 368.886 341.009C368.886 341.245 368.935 341.435 369.032 341.581C369.136 341.726 369.282 341.851 369.469 341.955C369.663 342.052 369.888 342.142 370.145 342.226C370.401 342.309 370.686 342.402 370.998 342.506C371.351 342.624 371.663 342.77 371.934 342.943C372.211 343.11 372.426 343.325 372.578 343.588C372.738 343.851 372.818 344.188 372.818 344.597C372.818 344.943 372.724 345.273 372.537 345.585C372.357 345.89 372.086 346.139 371.726 346.334C371.365 346.528 370.911 346.625 370.363 346.625Z" fill="#888888"/>
<path d="M311.993 363.5V353.98H313.353L318.208 361.283V353.98H319.568V363.5H318.208L313.353 356.21V363.5H311.993ZM321.555 363.5V353.98H322.915V363.5H321.555ZM324.902 363.5V353.98H328.425C329.096 353.98 329.653 354.089 330.097 354.306C330.542 354.515 330.873 354.805 331.09 355.177C331.317 355.539 331.43 355.952 331.43 356.414C331.43 356.895 331.321 357.298 331.104 357.625C330.895 357.951 330.619 358.205 330.274 358.386C329.939 358.559 329.576 358.658 329.186 358.686L329.39 358.55C329.807 358.559 330.184 358.672 330.519 358.89C330.864 359.098 331.136 359.379 331.335 359.733C331.544 360.086 331.648 360.476 331.648 360.902C331.648 361.392 331.525 361.836 331.281 362.235C331.045 362.625 330.696 362.933 330.233 363.16C329.78 363.387 329.218 363.5 328.547 363.5H324.902ZM326.262 362.371H328.37C328.969 362.371 329.431 362.235 329.757 361.963C330.093 361.682 330.261 361.288 330.261 360.78C330.261 360.281 330.088 359.882 329.744 359.583C329.408 359.284 328.941 359.134 328.343 359.134H326.262V362.371ZM326.262 358.087H328.275C328.846 358.087 329.281 357.956 329.581 357.693C329.88 357.421 330.029 357.049 330.029 356.578C330.029 356.124 329.88 355.766 329.581 355.503C329.281 355.231 328.837 355.095 328.248 355.095H326.262V358.087ZM336.37 363.663C335.672 363.663 335.06 363.541 334.534 363.296C334.018 363.042 333.614 362.689 333.324 362.235C333.034 361.782 332.884 361.251 332.875 360.644H334.303C334.312 360.989 334.394 361.306 334.548 361.596C334.711 361.877 334.942 362.104 335.242 362.276C335.55 362.439 335.926 362.521 336.37 362.521C336.751 362.521 337.078 362.457 337.35 362.33C337.631 362.203 337.844 362.031 337.989 361.814C338.134 361.587 338.206 361.329 338.206 361.038C338.206 360.703 338.129 360.431 337.975 360.222C337.83 360.005 337.626 359.828 337.363 359.692C337.109 359.547 336.81 359.42 336.466 359.311C336.13 359.193 335.777 359.071 335.405 358.944C334.652 358.699 334.09 358.382 333.718 357.992C333.356 357.602 333.174 357.094 333.174 356.469C333.174 355.934 333.297 355.471 333.542 355.082C333.796 354.683 334.154 354.374 334.616 354.157C335.078 353.93 335.618 353.817 336.234 353.817C336.851 353.817 337.39 353.93 337.853 354.157C338.315 354.383 338.678 354.696 338.941 355.095C339.204 355.494 339.34 355.961 339.349 356.496H337.907C337.907 356.251 337.839 356.011 337.703 355.775C337.576 355.539 337.386 355.349 337.132 355.204C336.887 355.05 336.574 354.973 336.194 354.973C335.885 354.964 335.609 355.014 335.364 355.122C335.119 355.231 334.929 355.39 334.793 355.598C334.657 355.807 334.589 356.056 334.589 356.346C334.589 356.637 334.648 356.872 334.766 357.054C334.893 357.226 335.074 357.375 335.31 357.502C335.545 357.629 335.817 357.747 336.126 357.856C336.443 357.956 336.792 358.069 337.173 358.196C337.644 358.35 338.061 358.541 338.424 358.767C338.796 358.985 339.09 359.27 339.308 359.624C339.526 359.969 339.634 360.413 339.634 360.957C339.634 361.428 339.508 361.868 339.254 362.276C339.009 362.684 338.646 363.019 338.166 363.282C337.694 363.536 337.096 363.663 336.37 363.663ZM344.366 363.663C343.668 363.663 343.056 363.541 342.53 363.296C342.013 363.042 341.61 362.689 341.319 362.235C341.029 361.782 340.88 361.251 340.871 360.644H342.299C342.308 360.989 342.389 361.306 342.543 361.596C342.707 361.877 342.938 362.104 343.237 362.276C343.545 362.439 343.922 362.521 344.366 362.521C344.747 362.521 345.073 362.457 345.345 362.33C345.626 362.203 345.839 362.031 345.984 361.814C346.129 361.587 346.202 361.329 346.202 361.038C346.202 360.703 346.125 360.431 345.971 360.222C345.826 360.005 345.622 359.828 345.359 359.692C345.105 359.547 344.806 359.42 344.461 359.311C344.126 359.193 343.772 359.071 343.4 358.944C342.648 358.699 342.086 358.382 341.714 357.992C341.351 357.602 341.17 357.094 341.17 356.469C341.17 355.934 341.292 355.471 341.537 355.082C341.791 354.683 342.149 354.374 342.611 354.157C343.074 353.93 343.613 353.817 344.23 353.817C344.846 353.817 345.386 353.93 345.848 354.157C346.311 354.383 346.673 354.696 346.936 355.095C347.199 355.494 347.335 355.961 347.344 356.496H345.903C345.903 356.251 345.835 356.011 345.699 355.775C345.572 355.539 345.381 355.349 345.127 355.204C344.883 355.05 344.57 354.973 344.189 354.973C343.881 354.964 343.604 355.014 343.359 355.122C343.115 355.231 342.924 355.39 342.788 355.598C342.652 355.807 342.584 356.056 342.584 356.346C342.584 356.637 342.643 356.872 342.761 357.054C342.888 357.226 343.069 357.375 343.305 357.502C343.541 357.629 343.813 357.747 344.121 357.856C344.438 357.956 344.787 358.069 345.168 358.196C345.64 358.35 346.057 358.541 346.419 358.767C346.791 358.985 347.086 359.27 347.303 359.624C347.521 359.969 347.63 360.413 347.63 360.957C347.63 361.428 347.503 361.868 347.249 362.276C347.004 362.684 346.642 363.019 346.161 363.282C345.69 363.536 345.091 363.663 344.366 363.663ZM354.943 362.562V356.55H356.14V362.562H354.943ZM352.372 360.127V358.985H358.724V360.127H352.372ZM367.338 363.663C366.667 363.663 366.06 363.532 365.516 363.269C364.972 362.997 364.537 362.589 364.21 362.045C363.893 361.492 363.734 360.789 363.734 359.937V353.98H365.094V359.95C365.094 360.522 365.19 360.993 365.38 361.365C365.57 361.727 365.833 361.999 366.169 362.181C366.513 362.353 366.912 362.439 367.366 362.439C367.828 362.439 368.227 362.353 368.562 362.181C368.898 361.999 369.156 361.727 369.338 361.365C369.528 360.993 369.623 360.522 369.623 359.95V353.98H370.983V359.937C370.983 360.789 370.82 361.492 370.494 362.045C370.167 362.589 369.727 362.997 369.174 363.269C368.621 363.532 368.009 363.663 367.338 363.663ZM372.874 363.5V353.98H376.124C376.886 353.98 377.512 354.107 378.001 354.361C378.491 354.615 378.854 354.955 379.089 355.381C379.325 355.807 379.443 356.292 379.443 356.836C379.443 357.362 379.325 357.842 379.089 358.278C378.863 358.704 378.504 359.048 378.015 359.311C377.525 359.565 376.895 359.692 376.124 359.692H374.234V363.5H372.874ZM374.234 358.563H376.07C376.786 358.563 377.294 358.409 377.593 358.101C377.902 357.783 378.056 357.362 378.056 356.836C378.056 356.292 377.902 355.87 377.593 355.571C377.294 355.263 376.786 355.109 376.07 355.109H374.234V358.563ZM384.024 363.663C383.325 363.663 382.713 363.541 382.188 363.296C381.671 363.042 381.267 362.689 380.977 362.235C380.687 361.782 380.537 361.251 380.528 360.644H381.956C381.965 360.989 382.047 361.306 382.201 361.596C382.364 361.877 382.596 362.104 382.895 362.276C383.203 362.439 383.579 362.521 384.024 362.521C384.404 362.521 384.731 362.457 385.003 362.33C385.284 362.203 385.497 362.031 385.642 361.814C385.787 361.587 385.86 361.329 385.86 361.038C385.86 360.703 385.783 360.431 385.628 360.222C385.483 360.005 385.279 359.828 385.016 359.692C384.763 359.547 384.463 359.42 384.119 359.311C383.783 359.193 383.43 359.071 383.058 358.944C382.305 358.699 381.743 358.382 381.372 357.992C381.009 357.602 380.828 357.094 380.828 356.469C380.828 355.934 380.95 355.471 381.195 355.082C381.449 354.683 381.807 354.374 382.269 354.157C382.732 353.93 383.271 353.817 383.888 353.817C384.504 353.817 385.044 353.93 385.506 354.157C385.968 354.383 386.331 354.696 386.594 355.095C386.857 355.494 386.993 355.961 387.002 356.496H385.56C385.56 356.251 385.492 356.011 385.356 355.775C385.229 355.539 385.039 355.349 384.785 355.204C384.54 355.05 384.228 354.973 383.847 354.973C383.539 354.964 383.262 355.014 383.017 355.122C382.772 355.231 382.582 355.39 382.446 355.598C382.31 355.807 382.242 356.056 382.242 356.346C382.242 356.637 382.301 356.872 382.419 357.054C382.546 357.226 382.727 357.375 382.963 357.502C383.199 357.629 383.471 357.747 383.779 357.856C384.096 357.956 384.445 358.069 384.826 358.196C385.297 358.35 385.715 358.541 386.077 358.767C386.449 358.985 386.744 359.27 386.961 359.624C387.179 359.969 387.288 360.413 387.288 360.957C387.288 361.428 387.161 361.868 386.907 362.276C386.662 362.684 386.299 363.019 385.819 363.282C385.347 363.536 384.749 363.663 384.024 363.663ZM388.905 363.5V353.98H390.265V362.426H394.617V363.5H388.905Z" fill="white"/>
</g>
<defs>
<filter id="filter0_d_3641_1135" x="0" y="79.5" width="561.91" height="441" filterUnits="userSpaceOnUse" color-interpolation-filters="sRGB">
<feFlood flood-opacity="0" result="BackgroundImageFix"/>
<feColorMatrix in="SourceAlpha" type="matrix" values="0 0 0 0 0 0 0 0 0 0 0 0 0 0 0 0 0 0 127 0" result="hardAlpha"/>
<feOffset dy="40"/>
<feGaussianBlur stdDeviation="40"/>
<feComposite in2="hardAlpha" operator="out"/>
<feColorMatrix type="matrix" values="0 0 0 0 0 0 0 0 0 0 0 0 0 0 0 0 0 0 0.5 0"/>
<feBlend mode="normal" in2="BackgroundImageFix" result="effect1_dropShadow_3641_1135"/>
<feBlend mode="normal" in="SourceGraphic" in2="effect1_dropShadow_3641_1135" result="shape"/>
</filter>
<filter id="filter1_d_3641_1135" x="230.45" y="160.5" width="248" height="103" filterUnits="userSpaceOnUse" color-interpolation-filters="sRGB">
<feFlood flood-opacity="0" result="BackgroundImageFix"/>
<feColorMatrix in="SourceAlpha" type="matrix" values="0 0 0 0 0 0 0 0 0 0 0 0 0 0 0 0 0 0 127 0" result="hardAlpha"/>
<feOffset dy="10"/>
<feGaussianBlur stdDeviation="15"/>
<feComposite in2="hardAlpha" operator="out"/>
<feColorMatrix type="matrix" values="0 0 0 0 0 0 0 0 0 0 0 0 0 0 0 0 0 0 0.4 0"/>
<feBlend mode="normal" in2="BackgroundImageFix" result="effect1_dropShadow_3641_1135"/>
<feBlend mode="normal" in="SourceGraphic" in2="effect1_dropShadow_3641_1135" result="shape"/>
</filter>
<filter id="filter2_d_3641_1135" x="50" y="256.5" width="210" height="103" filterUnits="userSpaceOnUse" color-interpolation-filters="sRGB">
<feFlood flood-opacity="0" result="BackgroundImageFix"/>
<feColorMatrix in="SourceAlpha" type="matrix" values="0 0 0 0 0 0 0 0 0 0 0 0 0 0 0 0 0 0 127 0" result="hardAlpha"/>
<feOffset dy="10"/>
<feGaussianBlur stdDeviation="15"/>
<feComposite in2="hardAlpha" operator="out"/>
<feColorMatrix type="matrix" values="0 0 0 0 0 0 0 0 0 0 0 0 0 0 0 0 0 0 0.4 0"/>
<feBlend mode="normal" in2="BackgroundImageFix" result="effect1_dropShadow_3641_1135"/>
<feBlend mode="normal" in="SourceGraphic" in2="effect1_dropShadow_3641_1135" result="shape"/>
</filter>
<filter id="filter3_d_3641_1135" x="297.91" y="300.5" width="214" height="103" filterUnits="userSpaceOnUse" color-interpolation-filters="sRGB">
<feFlood flood-opacity="0" result="BackgroundImageFix"/>
<feColorMatrix in="SourceAlpha" type="matrix" values="0 0 0 0 0 0 0 0 0 0 0 0 0 0 0 0 0 0 127 0" result="hardAlpha"/>
<feOffset dy="10"/>
<feGaussianBlur stdDeviation="15"/>
<feComposite in2="hardAlpha" operator="out"/>
<feColorMatrix type="matrix" values="0 0 0 0 0 0 0 0 0 0 0 0 0 0 0 0 0 0 0.4 0"/>
<feBlend mode="normal" in2="BackgroundImageFix" result="effect1_dropShadow_3641_1135"/>
<feBlend mode="normal" in="SourceGraphic" in2="effect1_dropShadow_3641_1135" result="shape"/>
</filter>
</defs>
</svg>
