<svg width="130" height="36" viewBox="0 0 130 36" fill="none" xmlns="http://www.w3.org/2000/svg">
<path fill-rule="evenodd" clip-rule="evenodd" d="M1.57986 12.9547C1.57986 12.9547 7.26699 4.10727 18.6412 0L34.1234 11.6907C29.0679 12.3224 5.05481 18.6419 0 33.1758C0 33.1758 0.315851 17.6943 25.5924 10.7432L17.3772 3.79203C17.3772 3.79203 11.3743 5.05605 1.57986 12.9547Z" fill="#FF0000"/>
<path fill-rule="evenodd" clip-rule="evenodd" d="M33.0378 14.583L40.2937 23.7038C31.2793 22.1166 10.4105 23.186 1.89062 35.9998C1.89062 35.9998 6.05699 21.0859 32.2688 20.6586L28.8591 15.847C30.5682 15.2892 32.0108 14.8681 33.0378 14.5836V14.583Z" fill="#FFA45F"/>
<path d="M61.2019 12.5092C61.2019 13.16 61.0812 13.7935 60.8349 14.4148C60.593 15.028 60.2679 15.6788 59.8541 16.3628C59.4496 17.0468 58.9786 17.806 58.4442 18.6439L54.7907 24.4708H51.0412L57.6691 14.5859L57.4899 17.1386C57.3606 17.2765 57.1143 17.4224 56.7517 17.5806C56.3934 17.7352 55.9925 17.8602 55.5505 17.9648C55.1078 18.0689 54.6953 18.1187 54.316 18.1187C53.2318 18.1187 52.2596 17.8688 51.4007 17.3639C50.5418 16.8634 49.8658 16.1793 49.3739 15.3118C48.8776 14.4443 48.6313 13.4684 48.6313 12.3885C48.6313 11.1996 48.8819 10.1696 49.3862 9.29406C49.8867 8.41855 50.6083 7.73822 51.5466 7.25428C52.4936 6.77097 53.6154 6.529 54.9126 6.529C56.8853 6.529 58.4288 7.06711 59.5463 8.14703C60.6638 9.22326 61.2148 10.6787 61.2019 12.5098V12.5092ZM57.8445 12.3885C57.8445 11.4502 57.6106 10.7157 57.1439 10.1819C56.6772 9.64809 55.934 9.38088 54.9126 9.38088C53.9158 9.38088 53.1776 9.64809 52.7017 10.1819C52.2264 10.7157 51.9887 11.4496 51.9887 12.3885C51.9887 13.3016 52.2227 14.0195 52.6894 14.5367C53.161 15.0532 53.8992 15.3118 54.9126 15.3118C55.8011 15.3118 56.5146 15.0532 57.0478 14.5367C57.5779 14.0195 57.8445 13.3016 57.8445 12.3885ZM70.2113 14.1112H67.6291V21.8437H70.2113V24.4714H68.1093C66.9875 24.4714 66.0695 24.2005 65.3523 23.6581C64.635 23.1157 64.276 22.2605 64.276 21.0931V14.1112H62.2744V11.4828H64.276V7.85458H67.6291V11.4828H70.2113V14.1112ZM75.9169 24.4714H72.5595V6.47852H75.9169L75.8836 13.0098C76.2715 12.3885 76.7302 11.9378 77.264 11.6583C77.7978 11.3745 78.4652 11.2329 79.2619 11.2329C80.734 11.2329 81.9143 11.6417 82.8071 12.4593C83.6998 13.2807 84.1456 14.6278 84.1456 16.5093V24.4714H80.7925V16.4847C80.7925 15.5544 80.6047 14.8827 80.2292 14.4782C79.8542 14.0657 79.2909 13.8612 78.5397 13.8612C77.956 13.8612 77.4678 13.9653 77.0756 14.1783C76.684 14.3827 76.3916 14.7041 76.2001 15.1419C76.0123 15.5716 75.9163 16.1387 75.9163 16.8393V24.472L75.9169 24.4714Z" fill="white"/>
<path d="M91.1328 6.77845H97.1469C98.6485 6.77845 99.8454 7.0161 100.734 7.49141C101.631 7.97165 102.281 8.62182 102.678 9.44746C103.082 10.2731 103.282 11.233 103.282 12.3252C103.282 13.4057 103.082 14.3693 102.678 15.2152C102.282 16.0581 101.635 16.7212 100.747 17.2052C99.8627 17.6928 98.6738 17.9347 97.185 17.9347H93.2809V24.4703H91.1328V6.77783V6.77845ZM97.0804 16.0754C98.1855 16.0754 99.0284 15.9251 99.6121 15.6253C100.2 15.3248 100.6 14.8908 100.813 14.328C101.034 13.7647 101.142 13.0979 101.142 12.3258C101.142 11.5457 101.034 10.8783 100.821 10.3322C100.608 9.78609 100.208 9.36434 99.6158 9.0682C99.0278 8.77636 98.1726 8.63044 97.0508 8.63044H93.2803V16.0754H97.0798H97.0804ZM116.758 24.4709H115.411C114.794 24.4709 114.318 24.2622 113.98 23.8411C113.647 23.4205 113.476 22.7365 113.468 21.781L113.726 21.8684C113.409 22.7316 112.888 23.4242 112.162 23.9457C111.441 24.4629 110.477 24.7215 109.267 24.7215C108.32 24.7215 107.519 24.5799 106.857 24.3004C106.198 24.0208 105.697 23.5954 105.355 23.024C105.013 22.4484 104.842 21.7268 104.842 20.8593C104.842 20.1796 104.968 19.6039 105.214 19.1243C105.468 18.644 105.818 18.2568 106.265 17.9686C106.715 17.6768 107.228 17.4637 107.808 17.3308C108.388 17.1928 109.009 17.122 109.664 17.122H113.481V15.9128C113.481 15.0244 113.243 14.3613 112.768 13.9315C112.292 13.5018 111.516 13.2851 110.444 13.2851C109.497 13.2851 108.784 13.4599 108.296 13.8102C107.808 14.1569 107.516 14.6691 107.42 15.3532H105.343C105.422 14.5405 105.685 13.8521 106.127 13.2974C106.565 12.734 107.162 12.3086 107.909 12.013C108.663 11.7169 109.535 11.5667 110.524 11.5667C111.178 11.5667 111.808 11.6418 112.409 11.7877C113.01 11.9336 113.543 12.1842 114.006 12.5345C114.477 12.8849 114.849 13.3522 115.12 13.9401C115.392 14.5201 115.528 15.246 115.528 16.1135V22.6866H116.759V24.4721L116.758 24.4709ZM106.877 20.8673C106.873 21.5802 107.086 22.114 107.524 22.4687C107.961 22.819 108.617 22.9945 109.496 22.9945C110.731 22.9945 111.703 22.702 112.412 22.1227C113.125 21.5427 113.479 20.7669 113.479 19.7954V18.7111H109.688C108.775 18.7111 108.082 18.8946 107.603 19.2665C107.131 19.6371 106.89 20.1715 106.877 20.8679L106.877 20.8673ZM127.677 11.837H129.767L125.417 26.4725C125.079 27.6232 124.583 28.4199 123.924 28.8583C123.261 29.3004 122.434 29.5214 121.442 29.5214H119.54V27.7575H121.321C121.984 27.7575 122.489 27.6325 122.839 27.3776C123.194 27.1233 123.469 26.6437 123.661 25.9387L127.678 11.837H127.677ZM119.907 11.837L122.801 20.7251C122.977 21.2379 123.123 21.6344 123.235 21.9053C123.348 22.1725 123.477 22.356 123.623 22.4564C123.769 22.5524 123.957 22.6023 124.187 22.6023H125.659V24.421H123.957C123.402 24.421 122.952 24.3373 122.61 24.1705C122.273 23.9993 121.976 23.6908 121.722 23.2445C121.467 22.7944 121.201 22.1516 120.921 21.318L117.78 11.8376H119.908L119.907 11.837Z" fill="#666666"/>
</svg>
